<svg width="144" height="144" viewBox="0 0 144 144" fill="none" xmlns="http://www.w3.org/2000/svg">
<path d="M63.1626 64.1408C59.9839 67.1596 55.1927 66.8758 52.1764 63.6858C49.314 60.6745 49.2827 55.8682 52.4614 52.8569C55.4902 49.9956 60.4314 50.1219 63.3001 53.1432C66.3201 56.3232 66.1801 61.272 63.1626 64.1408ZM90.5974 93.0611C87.4225 96.0724 82.6237 95.7874 79.7475 92.7698C76.7425 89.5873 76.87 84.9598 80.0463 81.9335C83.0637 79.0709 87.8625 79.0434 90.8737 82.2185C93.7437 85.2435 93.6162 90.1911 90.5974 93.0611Z" fill="#FF4ECD"/>
<path d="M78.6354 79.233C74.8554 82.8217 69.138 82.473 65.7417 78.8917C62.1468 75.1129 62.1318 69.4016 65.9055 65.8203C69.4942 62.4103 75.3879 62.5665 78.9629 66.3478C82.3741 69.9429 82.2166 75.8242 78.6354 79.233Z" fill="#FF4ECD"/>
<path d="M50.2654 77.2752C47.8879 79.5264 44.0154 79.2839 41.7542 76.899C39.4929 74.5065 39.5967 70.7965 41.9854 68.539C44.3666 66.2753 48.2329 66.219 50.4928 68.604C52.7578 70.9878 52.6541 75.0115 50.2654 77.2752Z" fill="#FF4ECD"/>
<path d="M74.2218 102.536C71.8443 104.801 68.1281 104.7 65.8706 102.322C63.6031 99.9386 63.5531 96.0573 65.9419 93.8011C68.3194 91.5311 72.3493 91.6511 74.6068 94.0298C76.8693 96.4136 76.6068 100.28 74.2218 102.536Z" fill="#FF4ECD"/>
<path d="M44.5069 28.3727C43.4569 27.2689 43.5032 25.4102 44.7732 24.2002C45.8844 23.1464 47.7419 23.1889 48.8032 24.3002C50.0106 25.5814 49.9644 27.4252 48.8432 28.4864C47.5782 29.6964 45.7207 29.6464 44.5069 28.3727Z" fill="#FF4ECD"/>
<path d="M23.9768 47.617C22.9231 46.5058 22.9768 44.662 24.0868 43.6008C25.3643 42.3895 27.2118 42.4408 28.273 43.5445C29.4755 44.8195 29.4293 46.677 28.1555 47.887C27.0418 48.9407 25.1843 48.8995 23.9768 47.617Z" fill="#FF4ECD"/>
<path d="M16.9542 37.8975C16.0929 36.9937 16.1354 35.485 17.0354 34.6237C18.0754 33.6337 19.5879 33.6687 20.4466 34.5875C21.4329 35.62 21.3891 37.1225 20.3504 38.105C19.4491 38.9662 17.9366 38.9375 16.9542 37.8975Z" fill="#FF4ECD"/>
<path d="M35.5569 19.7576C34.6919 18.8463 34.7344 17.3438 35.6419 16.4751C36.6744 15.4926 38.1869 15.5363 39.0481 16.4401C40.0306 17.4801 39.9881 18.9888 38.9519 19.9713C38.0494 20.8326 36.5369 20.7976 35.5569 19.7576Z" fill="#FF4ECD"/>
<path d="M21.5535 23.5084C20.496 22.3909 20.5497 20.5321 21.6535 19.4721C22.7647 18.4259 24.6297 18.4759 25.6935 19.5934C26.8859 20.8534 26.8372 22.7184 25.726 23.7721C24.6147 24.8259 22.7572 24.7696 21.5535 23.5084Z" fill="#FF4ECD"/>
<path d="M54.044 39.4352C52.2328 37.534 52.4741 34.6015 54.2265 32.9428C56.1303 31.1353 58.9115 31.2053 60.719 33.1078C62.3777 34.8653 62.3027 37.649 60.4065 39.4502C58.6503 41.1227 55.7065 41.194 54.044 39.4352Z" fill="#FF4ECD"/>
<path d="M32.2747 60.0827C30.4698 58.1814 30.5447 55.3902 32.446 53.589C34.1972 51.939 37.1372 51.8527 38.9459 53.7602C40.6009 55.5127 40.3772 58.4527 38.6259 60.1039C36.7185 61.9114 33.9347 61.8401 32.2747 60.0827Z" fill="#FF4ECD"/>
<path d="M29.9177 35.5128C28.259 33.7628 28.494 30.8216 30.234 29.1628C32.1427 27.3553 34.9289 27.4328 36.5852 29.1853C38.4014 31.0865 38.3302 33.8765 36.4177 35.684C34.6702 37.3428 31.7302 37.4215 29.9177 35.5128Z" fill="#FF4ECD"/>
<path d="M40.8621 48.9614C38.6121 46.5839 38.8646 42.724 41.2434 40.4527C43.6396 38.189 47.3558 38.2952 49.6083 40.6815C51.872 43.059 51.9283 46.9327 49.537 49.1964C47.1508 51.4602 43.1296 51.3477 40.8621 48.9614Z" fill="#FF4ECD"/>
<path d="M115.217 100.243C116.306 101.326 118.163 101.311 119.388 100.066C120.471 98.9757 120.456 97.1182 119.367 96.042C118.113 94.8107 116.27 94.8182 115.187 95.9132C113.963 97.1532 113.963 99.0045 115.217 100.243Z" fill="#FF4ECD"/>
<path d="M95.5391 120.37C96.6366 121.445 98.4866 121.437 99.5703 120.348C100.808 119.095 100.794 117.245 99.7115 116.161C98.4591 114.937 96.5941 114.951 95.3678 116.19C94.2866 117.281 94.3016 119.138 95.5391 120.37Z" fill="#FF4ECD"/>
<path d="M105.115 127.598C106.005 128.473 107.513 128.465 108.397 127.583C109.408 126.571 109.393 125.056 108.503 124.179C107.486 123.175 105.977 123.175 104.965 124.194C104.096 125.084 104.096 126.594 105.115 127.598Z" fill="#FF4ECD"/>
<path d="M123.636 109.385C124.526 110.254 126.044 110.254 126.919 109.358C127.93 108.345 127.916 106.83 127.032 105.954C126.015 104.943 124.499 104.956 123.495 105.981C122.619 106.865 122.619 108.381 123.636 109.385Z" fill="#FF4ECD"/>
<path d="M119.588 123.304C120.692 124.371 122.549 124.365 123.631 123.276C124.706 122.194 124.698 120.321 123.603 119.246C122.364 118.021 120.499 118.027 119.417 119.117C118.342 120.206 118.364 122.072 119.588 123.304Z" fill="#FF4ECD"/>
<path d="M104.354 90.4819C106.211 92.3332 109.153 92.1557 110.846 90.4469C112.696 88.582 112.683 85.7982 110.818 83.9545C109.095 82.2532 106.313 82.267 104.468 84.1332C102.773 85.8482 102.63 88.7957 104.354 90.4819Z" fill="#FF4ECD"/>
<path d="M83.252 111.819C85.117 113.669 87.9007 113.649 89.7595 111.783C91.447 110.061 91.5819 107.134 89.717 105.284C87.9932 103.591 85.0595 103.747 83.3658 105.468C81.5295 107.341 81.5433 110.126 83.252 111.819Z" fill="#FF4ECD"/>
<path d="M107.777 114.682C109.486 116.383 112.434 116.206 114.121 114.498C115.979 112.618 115.957 109.841 114.242 108.147C112.377 106.303 109.585 106.31 107.742 108.182C106.04 109.89 105.905 112.845 107.777 114.682Z" fill="#FF4ECD"/>
<path d="M94.5432 103.455C96.8782 105.769 100.752 105.59 103.072 103.255C105.379 100.92 105.349 97.2036 103.014 94.8911C100.679 92.5762 96.807 92.4412 94.4995 94.7836C92.1795 97.1261 92.2082 101.147 94.5432 103.455Z" fill="#FF4ECD"/>
<path d="M76.3592 52.1575C78.7092 49.8575 78.6092 45.9788 76.3167 43.6363C74.0105 41.2864 70.3017 41.2451 67.9518 43.5451C65.5993 45.8376 65.3993 49.7025 67.6955 52.0525C69.9955 54.4013 74.0242 54.45 76.3592 52.1575Z" fill="#FF4ECD"/>
<path d="M100.693 77.0627C103.043 74.7702 103.092 71.0478 100.807 68.7028C98.501 66.3465 94.6285 66.154 92.2785 68.4465C89.9298 70.739 89.8873 74.7702 92.1798 77.119C94.471 79.469 98.3435 79.3627 100.693 77.0627Z" fill="#FF4ECD"/>
<path d="M79.8623 63.1585C76.851 59.976 77.1273 55.1784 80.3173 52.1734C83.336 49.3121 88.1347 49.2834 91.1534 52.4596C94.0009 55.4772 93.8734 60.4335 90.8547 63.2872C87.6797 66.3048 82.7385 66.1698 79.8623 63.1585ZM50.9437 90.5825C47.935 87.4075 48.22 82.6087 51.2387 79.7537C54.4137 76.7361 59.0587 76.8561 62.0674 80.0324C64.9324 83.0512 64.9611 87.8562 61.7861 90.8675C58.7599 93.7376 53.8112 93.6088 50.9437 90.5825Z" fill="#FF4ECD"/>
<path d="M115.628 44.4977C116.739 43.4439 118.604 43.5002 119.801 44.7602C120.854 45.8789 120.797 47.7301 119.701 48.7839C118.426 50.0026 116.568 49.9514 115.514 48.8339C114.303 47.5651 114.361 45.7077 115.628 44.4977Z" fill="#FF4ECD"/>
<path d="M96.3794 23.9791C97.4894 22.9254 99.3556 22.9679 100.409 24.0791C101.619 25.3541 101.563 27.1966 100.452 28.2666C99.1843 29.4766 97.3194 29.4191 96.1156 28.1516C95.0619 27.0254 95.1119 25.1829 96.3794 23.9791Z" fill="#FF4ECD"/>
<path d="M106.104 16.9446C107.007 16.0834 108.524 16.1259 109.385 17.0296C110.367 18.0696 110.332 19.5721 109.414 20.4334C108.389 21.4234 106.879 21.3734 105.89 20.3409C105.029 19.4296 105.071 17.9271 106.104 16.9446Z" fill="#FF4ECD"/>
<path d="M124.246 35.5419C125.157 34.6869 126.667 34.7244 127.528 35.6269C128.503 36.6669 128.468 38.1832 127.563 39.0381C126.523 40.0194 125.014 39.9781 124.032 38.9456C123.177 38.0407 123.207 36.5244 124.246 35.5419Z" fill="#FF4ECD"/>
<path d="M120.499 21.5455C121.61 20.4843 123.468 20.5343 124.523 21.6455C125.584 22.7567 125.527 24.6217 124.415 25.6755C123.148 26.8717 121.283 26.8292 120.229 25.718C119.182 24.613 119.232 22.748 120.499 21.5455Z" fill="#FF4ECD"/>
<path d="M104.564 54.0301C106.458 52.2302 109.405 52.4639 111.064 54.2151C112.864 56.1164 112.794 58.8926 110.885 60.7076C109.14 62.3663 106.357 62.2888 104.542 60.3864C102.884 58.6439 102.813 55.6889 104.564 54.0301Z" fill="#FF4ECD"/>
<path d="M83.9197 32.2664C85.8209 30.4664 88.6047 30.5289 90.4196 32.4377C92.0784 34.1889 92.1496 37.1226 90.2409 38.9376C88.4909 40.5964 85.5572 40.3689 83.8984 38.6176C82.0972 36.7089 82.1685 33.9252 83.9197 32.2664Z" fill="#FF4ECD"/>
<path d="M108.48 29.9087C110.239 28.2437 113.18 28.485 114.846 30.23C116.654 32.1312 116.569 34.9212 114.824 36.5812C112.909 38.3887 110.125 38.3249 108.324 36.4099C106.665 34.6649 106.588 31.7174 108.48 29.9087Z" fill="#FF4ECD"/>
<path d="M95.0323 40.8594C97.4173 38.6107 101.284 38.8594 103.547 41.2382C105.805 43.6307 105.697 47.3394 103.318 49.5969C100.934 51.8619 97.0673 51.9169 94.8035 49.5319C92.5486 47.1456 92.6548 43.1244 95.0323 40.8594Z" fill="#FF4ECD"/>
<path d="M43.7561 115.202C42.6736 116.299 42.6911 118.156 43.9311 119.381C45.0274 120.464 46.8861 120.456 47.9648 119.36C49.1998 118.114 49.1861 116.256 48.0961 115.18C46.8499 113.955 44.9986 113.955 43.7561 115.202Z" fill="#FF4ECD"/>
<path d="M23.6275 95.537C22.56 96.627 22.56 98.4845 23.655 99.5607C24.905 100.798 26.755 100.784 27.8413 99.6945C29.0725 98.4495 29.0513 96.5907 27.8163 95.352C26.7213 94.2695 24.8638 94.292 23.6275 95.537Z" fill="#FF4ECD"/>
<path d="M16.4021 105.106C15.5271 106.003 15.5333 107.504 16.4171 108.387C17.4383 109.399 18.9545 109.384 19.827 108.494C20.842 107.483 20.827 105.968 19.8058 104.963C18.9195 104.088 17.4058 104.096 16.4021 105.106Z" fill="#FF4ECD"/>
<path d="M34.6241 123.639C33.7478 124.529 33.7516 126.032 34.6416 126.914C35.6566 127.918 37.1691 127.912 38.0478 127.028C39.0478 126.003 39.0478 124.494 38.0228 123.498C37.1378 122.613 35.6278 122.613 34.6241 123.639Z" fill="#FF4ECD"/>
<path d="M20.7039 119.593C19.6327 120.683 19.6327 122.541 20.7289 123.63C21.8139 124.697 23.6789 124.691 24.7614 123.595C25.9751 122.356 25.9714 120.491 24.8901 119.408C23.7964 118.341 21.9351 118.356 20.7039 119.593Z" fill="#FF4ECD"/>
<path d="M53.5201 104.337C51.6727 106.202 51.8439 109.144 53.5564 110.837C55.4314 112.687 58.2126 112.674 60.0564 110.809C61.7576 109.086 61.7401 106.304 59.8714 104.459C58.1614 102.756 55.2114 102.621 53.5201 104.337Z" fill="#FF4ECD"/>
<path d="M32.1824 83.2419C30.3349 85.1144 30.3562 87.8981 32.2174 89.7418C33.9399 91.4356 36.8737 91.5718 38.7174 89.7068C40.4111 87.9906 40.2549 85.0494 38.5386 83.3556C36.6712 81.5119 33.8762 81.5256 32.1824 83.2419Z" fill="#FF4ECD"/>
<path d="M29.3235 107.761C27.6185 109.478 27.796 112.424 29.506 114.119C31.3748 115.964 34.1585 115.949 35.8572 114.241C37.711 112.354 37.6972 109.578 35.8247 107.726C34.111 106.039 31.1635 105.896 29.3235 107.761Z" fill="#FF4ECD"/>
<path d="M40.5402 94.5333C38.234 96.8758 38.4115 100.749 40.7465 103.054C43.0852 105.374 46.8052 105.339 49.1052 103.004C51.4189 100.669 51.5576 96.797 49.2227 94.4895C46.8802 92.177 42.8539 92.2058 40.5402 94.5333Z" fill="#FF4ECD"/>
</svg>
