<svg width="384" height="384" viewBox="0 0 384 384" fill="none" xmlns="http://www.w3.org/2000/svg">
<path d="M168.434 171.042C159.957 179.092 147.181 178.336 139.137 169.829C131.504 161.799 131.421 148.982 139.897 140.952C147.974 133.322 161.15 133.658 168.8 141.715C176.854 150.195 176.48 163.392 168.434 171.042ZM241.593 248.163C233.127 256.193 220.33 255.433 212.66 247.386C204.647 238.9 204.987 226.559 213.457 218.489C221.503 210.856 234.3 210.783 242.33 219.249C249.983 227.316 249.643 240.51 241.593 248.163Z" fill="#FF4ECD"/>
<path d="M209.695 211.288C199.615 220.858 184.368 219.928 175.312 210.378C165.725 200.301 165.685 185.071 175.748 175.521C185.318 166.427 201.035 166.844 210.568 176.928C219.665 186.514 219.245 202.198 209.695 211.288Z" fill="#FF4ECD"/>
<path d="M134.041 206.067C127.701 212.071 117.374 211.424 111.344 205.064C105.315 198.684 105.591 188.791 111.961 182.771C118.311 176.734 128.621 176.584 134.648 182.944C140.688 189.301 140.411 200.031 134.041 206.067Z" fill="#FF4ECD"/>
<path d="M197.925 273.429C191.585 279.469 181.675 279.199 175.655 272.859C169.609 266.503 169.475 256.153 175.845 250.136C182.185 244.083 192.932 244.403 198.952 250.746C204.985 257.103 204.285 267.413 197.925 273.429Z" fill="#FF4ECD"/>
<path d="M118.685 75.6604C115.885 72.717 116.009 67.7604 119.395 64.5338C122.359 61.7238 127.312 61.8371 130.142 64.8004C133.362 68.2171 133.238 73.1337 130.248 75.9637C126.875 79.1903 121.922 79.057 118.685 75.6604Z" fill="#FF4ECD"/>
<path d="M63.9381 126.979C61.1282 124.015 61.2715 119.099 64.2315 116.269C67.6381 113.039 72.5647 113.175 75.3947 116.119C78.6014 119.519 78.478 124.472 75.0814 127.699C72.1114 130.509 67.1581 130.399 63.9381 126.979Z" fill="#FF4ECD"/>
<path d="M45.2112 101.06C42.9146 98.65 43.0279 94.6267 45.4279 92.33C48.2012 89.69 52.2345 89.7833 54.5245 92.2333C57.1545 94.9866 57.0378 98.9933 54.2678 101.613C51.8645 103.91 47.8312 103.833 45.2112 101.06Z" fill="#FF4ECD"/>
<path d="M94.8184 52.6869C92.5118 50.2569 92.6251 46.2502 95.0451 43.9336C97.7984 41.3136 101.832 41.4303 104.128 43.8403C106.748 46.6136 106.635 50.6369 103.872 53.2569C101.465 55.5535 97.4317 55.4602 94.8184 52.6869Z" fill="#FF4ECD"/>
<path d="M57.4764 62.6889C54.6565 59.709 54.7998 54.7523 57.7431 51.9257C60.7064 49.1357 65.6797 49.269 68.5164 52.249C71.6963 55.609 71.5663 60.5823 68.603 63.3923C65.6397 66.2023 60.6864 66.0523 57.4764 62.6889Z" fill="#FF4ECD"/>
<path d="M144.118 105.161C139.288 100.091 139.931 92.2707 144.605 87.8474C149.681 83.0274 157.098 83.2141 161.918 88.2874C166.341 92.974 166.141 100.397 161.084 105.201C156.401 109.661 148.551 109.851 144.118 105.161Z" fill="#FF4ECD"/>
<path d="M86.066 160.22C81.2527 155.151 81.4527 147.707 86.5226 142.904C91.1926 138.504 99.0326 138.274 103.856 143.361C108.269 148.034 107.672 155.874 103.003 160.277C97.9159 165.097 90.4926 164.907 86.066 160.22Z" fill="#FF4ECD"/>
<path d="M79.7808 94.7007C75.3575 90.0341 75.9842 82.1908 80.6242 77.7675C85.7141 72.9475 93.1441 73.1542 97.5607 77.8275C102.404 82.8975 102.214 90.3374 97.1141 95.1574C92.4541 99.5807 84.6141 99.7907 79.7808 94.7007Z" fill="#FF4ECD"/>
<path d="M108.966 130.564C102.966 124.224 103.639 113.931 109.982 107.874C116.372 101.837 126.282 102.121 132.289 108.484C138.325 114.824 138.475 125.154 132.099 131.19C125.735 137.227 115.012 136.927 108.966 130.564Z" fill="#FF4ECD"/>
<path d="M307.246 267.315C310.149 270.202 315.102 270.162 318.369 266.842C321.256 263.935 321.216 258.982 318.312 256.112C314.969 252.829 310.052 252.849 307.166 255.769C303.902 259.075 303.902 264.012 307.246 267.315Z" fill="#FF4ECD"/>
<path d="M254.771 320.986C257.698 323.853 262.631 323.833 265.521 320.929C268.821 317.586 268.784 312.653 265.898 309.763C262.558 306.499 257.584 306.536 254.314 309.839C251.431 312.749 251.471 317.703 254.771 320.986Z" fill="#FF4ECD"/>
<path d="M280.306 340.26C282.68 342.593 286.703 342.573 289.06 340.22C291.756 337.523 291.716 333.483 289.343 331.144C286.63 328.467 282.606 328.467 279.906 331.184C277.59 333.557 277.59 337.583 280.306 340.26Z" fill="#FF4ECD"/>
<path d="M329.697 291.694C332.071 294.01 336.117 294.01 338.451 291.62C341.147 288.92 341.111 284.881 338.754 282.544C336.041 279.847 331.997 279.884 329.321 282.617C326.984 284.974 326.984 289.017 329.697 291.694Z" fill="#FF4ECD"/>
<path d="M318.902 328.809C321.845 331.656 326.798 331.639 329.682 328.736C332.548 325.849 332.528 320.856 329.608 317.989C326.305 314.723 321.332 314.74 318.445 317.646C315.578 320.549 315.638 325.526 318.902 328.809Z" fill="#FF4ECD"/>
<path d="M278.278 241.285C283.231 246.222 291.074 245.748 295.591 241.192C300.524 236.219 300.488 228.795 295.514 223.879C290.921 219.342 283.501 219.379 278.581 224.355C274.061 228.929 273.681 236.789 278.278 241.285Z" fill="#FF4ECD"/>
<path d="M222.006 298.185C226.979 303.118 234.402 303.065 239.359 298.088C243.859 293.495 244.219 285.692 239.245 280.759C234.649 276.242 226.826 276.659 222.309 281.249C217.412 286.242 217.449 293.668 222.006 298.185Z" fill="#FF4ECD"/>
<path d="M287.406 305.819C291.963 310.356 299.823 309.882 304.323 305.329C309.276 300.316 309.219 292.909 304.646 288.392C299.673 283.476 292.226 283.492 287.313 288.486C282.773 293.039 282.413 300.919 287.406 305.819Z" fill="#FF4ECD"/>
<path d="M252.115 275.88C258.342 282.049 268.672 281.573 274.859 275.346C281.012 269.12 280.932 259.21 274.705 253.043C268.479 246.87 258.152 246.51 251.999 252.756C245.812 259.003 245.889 269.726 252.115 275.88Z" fill="#FF4ECD"/>
<path d="M203.625 139.087C209.891 132.953 209.625 122.61 203.511 116.364C197.361 110.097 187.472 109.987 181.205 116.12C174.932 122.233 174.398 132.54 180.522 138.807C186.655 145.07 197.398 145.2 203.625 139.087Z" fill="#FF4ECD"/>
<path d="M268.516 205.501C274.783 199.387 274.913 189.461 268.819 183.207C262.669 176.924 252.343 176.411 246.076 182.524C239.813 188.637 239.7 199.387 245.813 205.651C251.923 211.917 262.249 211.634 268.516 205.501Z" fill="#FF4ECD"/>
<path d="M212.966 168.423C204.936 159.936 205.673 147.142 214.18 139.129C222.23 131.499 235.026 131.422 243.076 139.892C250.669 147.939 250.329 161.156 242.28 168.766C233.813 176.813 220.636 176.453 212.966 168.423ZM135.85 241.553C127.827 233.087 128.587 220.29 136.637 212.676C145.103 204.63 157.49 204.95 165.513 213.42C173.153 221.47 173.23 234.283 164.763 242.313C156.693 249.967 143.497 249.623 135.85 241.553Z" fill="#FF4ECD"/>
<path d="M308.342 118.661C311.305 115.851 316.278 116.001 319.468 119.361C322.278 122.344 322.125 127.281 319.202 130.091C315.802 133.34 310.848 133.204 308.039 130.224C304.809 126.841 304.962 121.887 308.342 118.661Z" fill="#FF4ECD"/>
<path d="M257.012 63.9443C259.972 61.1344 264.948 61.2477 267.758 64.211C270.985 67.611 270.835 72.5243 267.872 75.3776C264.492 78.6042 259.518 78.4509 256.308 75.0709C253.498 72.0676 253.632 67.1543 257.012 63.9443Z" fill="#FF4ECD"/>
<path d="M282.943 45.1858C285.353 42.8891 289.397 43.0024 291.693 45.4124C294.313 48.1857 294.22 52.1924 291.77 54.489C289.037 57.129 285.01 56.9957 282.373 54.2424C280.077 51.8124 280.19 47.8057 282.943 45.1858Z" fill="#FF4ECD"/>
<path d="M331.321 94.7786C333.751 92.4986 337.778 92.5986 340.075 95.0053C342.675 97.7786 342.581 101.822 340.168 104.102C337.395 106.719 333.371 106.609 330.751 103.855C328.471 101.442 328.551 97.3986 331.321 94.7786Z" fill="#FF4ECD"/>
<path d="M321.332 57.4548C324.295 54.6248 329.248 54.7581 332.061 57.7214C334.891 60.6847 334.738 65.6581 331.775 68.468C328.395 71.658 323.422 71.5447 320.612 68.5814C317.818 65.6347 317.952 60.6614 321.332 57.4548Z" fill="#FF4ECD"/>
<path d="M278.838 144.08C283.888 139.281 291.748 139.904 296.171 144.574C300.971 149.644 300.785 157.047 295.695 161.887C291.041 166.31 283.618 166.104 278.778 161.03C274.358 156.384 274.168 148.504 278.838 144.08Z" fill="#FF4ECD"/>
<path d="M223.786 86.0439C228.856 81.2439 236.279 81.4106 241.119 86.5006C245.543 91.1705 245.733 98.9938 240.643 103.834C235.976 108.257 228.153 107.65 223.729 102.98C218.926 97.8905 219.116 90.4672 223.786 86.0439Z" fill="#FF4ECD"/>
<path d="M289.28 79.7567C293.97 75.3168 301.814 75.9601 306.257 80.6134C311.077 85.6834 310.85 93.1233 306.197 97.5499C301.09 102.37 293.667 102.2 288.864 97.0933C284.44 92.44 284.234 84.58 289.28 79.7567Z" fill="#FF4ECD"/>
<path d="M253.419 108.959C259.779 102.962 270.089 103.625 276.126 109.969C282.146 116.349 281.859 126.238 275.516 132.258C269.156 138.298 258.846 138.445 252.809 132.085C246.796 125.722 247.079 114.999 253.419 108.959Z" fill="#FF4ECD"/>
<path d="M116.683 307.206C113.797 310.129 113.843 315.083 117.15 318.349C120.073 321.236 125.03 321.216 127.906 318.293C131.2 314.969 131.163 310.016 128.256 307.146C124.933 303.88 119.997 303.879 116.683 307.206Z" fill="#FF4ECD"/>
<path d="M63.0068 254.765C60.1601 257.672 60.1601 262.625 63.0801 265.495C66.4134 268.795 71.3467 268.759 74.2434 265.852C77.5267 262.532 77.47 257.575 74.1767 254.272C71.2567 251.385 66.3034 251.445 63.0068 254.765Z" fill="#FF4ECD"/>
<path d="M43.739 280.282C41.4057 282.675 41.4224 286.678 43.779 289.032C46.5024 291.732 50.5457 291.692 52.8723 289.318C55.579 286.622 55.539 282.582 52.8157 279.902C50.4523 277.569 46.4157 277.589 43.739 280.282Z" fill="#FF4ECD"/>
<path d="M92.3313 329.704C89.9947 332.077 90.0047 336.084 92.378 338.437C95.0847 341.114 99.118 341.097 101.461 338.741C104.128 336.007 104.128 331.984 101.395 329.327C99.0346 326.967 95.008 326.967 92.3313 329.704Z" fill="#FF4ECD"/>
<path d="M55.2106 318.916C52.354 321.822 52.354 326.776 55.2773 329.679C58.1706 332.526 63.1439 332.509 66.0306 329.586C69.2672 326.282 69.2572 321.309 66.3739 318.423C63.4573 315.576 58.494 315.616 55.2106 318.916Z" fill="#FF4ECD"/>
<path d="M142.721 278.233C137.794 283.206 138.251 291.05 142.818 295.566C147.818 300.5 155.234 300.463 160.151 295.49C164.687 290.896 164.641 283.476 159.658 278.556C155.098 274.016 147.231 273.656 142.721 278.233Z" fill="#FF4ECD"/>
<path d="M85.82 221.978C80.8934 226.972 80.95 234.395 85.9133 239.312C90.5066 243.828 98.3299 244.192 103.247 239.218C107.763 234.642 107.347 226.798 102.77 222.282C97.7899 217.365 90.3366 217.402 85.82 221.978Z" fill="#FF4ECD"/>
<path d="M78.1967 287.364C73.6501 291.94 74.1234 299.797 78.6834 304.317C83.6667 309.237 91.09 309.197 95.62 304.644C100.563 299.61 100.527 292.207 95.5333 287.27C90.9633 282.77 83.1034 282.39 78.1967 287.364Z" fill="#FF4ECD"/>
<path d="M108.108 252.089C101.958 258.335 102.431 268.665 108.658 274.812C114.894 280.999 124.814 280.905 130.947 274.679C137.117 268.452 137.487 258.125 131.261 251.972C125.014 245.805 114.278 245.882 108.108 252.089Z" fill="#FF4ECD"/>
</svg>
