<svg width="512" height="512" viewBox="0 0 512 512" fill="none" xmlns="http://www.w3.org/2000/svg">
<path d="M224.578 228.056C213.276 238.79 196.241 237.781 185.516 226.438C175.339 215.732 175.228 198.642 186.53 187.936C197.299 177.762 214.867 178.211 225.067 188.954C235.805 200.26 235.307 217.856 224.578 228.056ZM322.124 330.884C310.836 341.591 293.774 340.577 283.547 329.848C272.863 318.533 273.316 302.079 284.609 291.319C295.338 281.141 312.4 281.043 323.107 292.332C333.311 303.088 332.858 320.679 322.124 330.884Z" fill="#FF4ECD"/>
<path d="M279.593 281.717C266.153 294.477 245.824 293.237 233.749 280.504C220.967 267.068 220.913 246.761 234.331 234.028C247.091 221.903 268.046 222.459 280.758 235.903C292.886 248.686 292.326 269.597 279.593 281.717Z" fill="#FF4ECD"/>
<path d="M178.721 274.756C170.268 282.761 156.499 281.898 148.459 273.419C140.419 264.912 140.788 251.721 149.281 243.694C157.748 235.645 171.494 235.445 179.53 243.925C187.583 252.401 187.214 266.708 178.721 274.756Z" fill="#FF4ECD"/>
<path d="M263.9 364.573C255.447 372.626 242.234 372.266 234.207 363.813C226.145 355.337 225.967 341.537 234.46 333.515C242.914 325.444 257.242 325.871 265.269 334.328C273.313 342.804 272.38 356.55 263.9 364.573Z" fill="#FF4ECD"/>
<path d="M158.247 100.88C154.514 96.9561 154.678 90.3472 159.193 86.045C163.145 82.2984 169.749 82.4495 173.522 86.4006C177.816 90.9561 177.651 97.5116 173.664 101.285C169.167 105.587 162.562 105.409 158.247 100.88Z" fill="#FF4ECD"/>
<path d="M85.2509 169.305C81.5043 165.354 81.6954 158.798 85.642 155.025C90.1842 150.718 96.7531 150.9 100.526 154.825C104.802 159.358 104.637 165.963 100.109 170.265C96.1486 174.011 89.5442 173.865 85.2509 169.305Z" fill="#FF4ECD"/>
<path d="M60.2815 134.747C57.2193 131.533 57.3704 126.169 60.5704 123.107C64.2681 119.587 69.6459 119.711 72.6992 122.978C76.2058 126.649 76.0503 131.991 72.357 135.484C69.1525 138.547 63.7748 138.444 60.2815 134.747Z" fill="#FF4ECD"/>
<path d="M126.424 70.2491C123.349 67.0091 123.5 61.6669 126.727 58.5781C130.398 55.0848 135.776 55.2403 138.838 58.4536C142.331 62.1514 142.18 67.5158 138.496 71.0091C135.287 74.0713 129.909 73.9469 126.424 70.2491Z" fill="#FF4ECD"/>
<path d="M76.635 83.5852C72.875 79.6119 73.0661 73.0031 76.9906 69.2342C80.9416 65.5142 87.5727 65.692 91.3549 69.6653C95.5949 74.1453 95.4215 80.7763 91.4705 84.523C87.5194 88.2696 80.915 88.0696 76.635 83.5852Z" fill="#FF4ECD"/>
<path d="M192.157 140.214C185.717 133.454 186.575 123.028 192.806 117.13C199.575 110.703 209.463 110.952 215.89 117.716C221.788 123.965 221.521 133.863 214.779 140.267C208.535 146.214 198.068 146.467 192.157 140.214Z" fill="#FF4ECD"/>
<path d="M114.754 213.627C108.337 206.867 108.603 196.943 115.363 190.539C121.59 184.672 132.043 184.365 138.474 191.147C144.359 197.378 143.563 207.832 137.337 213.703C130.554 220.129 120.657 219.876 114.754 213.627Z" fill="#FF4ECD"/>
<path d="M106.374 126.268C100.477 120.045 101.312 109.588 107.499 103.69C114.285 97.2633 124.192 97.5389 130.081 103.77C136.539 110.53 136.285 120.45 129.485 126.876C123.272 132.774 112.819 133.054 106.374 126.268Z" fill="#FF4ECD"/>
<path d="M145.287 174.085C137.287 165.632 138.185 151.907 146.643 143.832C155.163 135.783 168.376 136.161 176.385 144.645C184.434 153.098 184.634 166.872 176.131 174.921C167.647 182.969 153.349 182.569 145.287 174.085Z" fill="#FF4ECD"/>
<path d="M409.661 356.42C413.532 360.269 420.136 360.216 424.492 355.789C428.341 351.914 428.287 345.309 424.416 341.483C419.958 337.105 413.403 337.131 409.554 341.025C405.203 345.434 405.203 352.016 409.661 356.42Z" fill="#FF4ECD"/>
<path d="M339.695 427.981C343.597 431.803 350.175 431.777 354.028 427.906C358.428 423.448 358.379 416.87 354.53 413.017C350.077 408.666 343.446 408.715 339.086 413.119C335.241 416.999 335.295 423.603 339.695 427.981Z" fill="#FF4ECD"/>
<path d="M373.742 453.68C376.906 456.791 382.271 456.764 385.413 453.627C389.008 450.031 388.955 444.644 385.791 441.525C382.173 437.956 376.809 437.956 373.209 441.578C370.12 444.742 370.12 450.111 373.742 453.68Z" fill="#FF4ECD"/>
<path d="M439.596 388.925C442.761 392.014 448.156 392.014 451.267 388.827C454.863 385.227 454.814 379.841 451.672 376.725C448.054 373.129 442.663 373.178 439.094 376.823C435.979 379.965 435.979 385.356 439.596 388.925Z" fill="#FF4ECD"/>
<path d="M425.203 438.412C429.127 442.208 435.731 442.186 439.576 438.315C443.398 434.466 443.371 427.808 439.478 423.986C435.074 419.63 428.442 419.653 424.594 423.528C420.771 427.399 420.851 434.035 425.203 438.412Z" fill="#FF4ECD"/>
<path d="M371.037 321.713C377.641 328.296 388.099 327.665 394.121 321.589C400.699 314.958 400.65 305.06 394.019 298.505C387.894 292.456 378.001 292.505 371.441 299.14C365.415 305.238 364.908 315.718 371.037 321.713Z" fill="#FF4ECD"/>
<path d="M296.008 397.58C302.639 404.158 312.536 404.087 319.145 397.451C325.145 391.327 325.625 380.922 318.994 374.345C312.865 368.322 302.434 368.878 296.412 374.998C289.883 381.656 289.932 391.558 296.008 397.58Z" fill="#FF4ECD"/>
<path d="M383.208 407.758C389.284 413.807 399.764 413.176 405.764 407.105C412.368 400.421 412.292 390.545 406.195 384.523C399.564 377.968 389.635 377.99 383.084 384.647C377.03 390.719 376.55 401.225 383.208 407.758Z" fill="#FF4ECD"/>
<path d="M336.154 367.839C344.456 376.066 358.23 375.43 366.478 367.128C374.683 358.826 374.576 345.613 366.274 337.391C357.972 329.16 344.203 328.68 335.999 337.008C327.75 345.337 327.852 359.635 336.154 367.839Z" fill="#FF4ECD"/>
<path d="M271.5 185.449C279.855 177.271 279.5 163.48 271.349 155.151C263.149 146.796 249.962 146.649 241.606 154.827C233.242 162.978 232.531 176.72 240.695 185.076C248.873 193.427 263.197 193.6 271.5 185.449Z" fill="#FF4ECD"/>
<path d="M358.021 274.001C366.377 265.85 366.55 252.614 358.426 244.277C350.226 235.899 336.457 235.215 328.101 243.366C319.75 251.517 319.599 265.85 327.75 274.201C335.897 282.556 349.666 282.179 358.021 274.001Z" fill="#FF4ECD"/>
<path d="M283.955 224.564C273.249 213.248 274.231 196.19 285.573 185.505C296.306 175.332 313.368 175.23 324.102 186.523C334.226 197.252 333.773 214.875 323.04 225.021C311.751 235.75 294.182 235.27 283.955 224.564ZM181.134 322.071C170.436 310.782 171.449 293.72 182.183 283.569C193.471 272.84 209.987 273.266 220.685 284.56C230.871 295.293 230.973 312.378 219.685 323.085C208.925 333.289 191.329 332.831 181.134 322.071Z" fill="#FF4ECD"/>
<path d="M411.122 158.214C415.074 154.467 421.705 154.667 425.958 159.147C429.705 163.125 429.5 169.707 425.602 173.454C421.069 177.787 414.465 177.605 410.718 173.632C406.411 169.121 406.616 162.516 411.122 158.214Z" fill="#FF4ECD"/>
<path d="M342.682 85.2591C346.629 81.5124 353.264 81.6635 357.011 85.6146C361.313 90.1479 361.113 96.699 357.162 100.503C352.656 104.806 346.024 104.601 341.744 100.095C337.998 96.0901 338.176 89.539 342.682 85.2591Z" fill="#FF4ECD"/>
<path d="M377.258 60.2476C380.471 57.1854 385.862 57.3365 388.924 60.5499C392.418 64.2476 392.293 69.5898 389.026 72.652C385.382 76.172 380.013 75.9942 376.498 72.3231C373.435 69.0831 373.587 63.7409 377.258 60.2476Z" fill="#FF4ECD"/>
<path d="M441.762 126.371C445.002 123.331 450.371 123.465 453.433 126.674C456.9 130.371 456.775 135.762 453.557 138.802C449.86 142.291 444.495 142.145 441.002 138.474C437.962 135.256 438.069 129.865 441.762 126.371Z" fill="#FF4ECD"/>
<path d="M428.442 76.6063C432.393 72.833 438.998 73.0108 442.749 76.9618C446.522 80.9129 446.318 87.544 442.367 91.2907C437.86 95.544 431.229 95.3929 427.482 91.4418C423.758 87.5129 423.936 80.8818 428.442 76.6063Z" fill="#FF4ECD"/>
<path d="M371.784 192.107C378.517 185.707 388.997 186.538 394.895 192.765C401.295 199.525 401.046 209.396 394.26 215.849C388.055 221.747 378.157 221.472 371.704 214.707C365.811 208.512 365.558 198.005 371.784 192.107Z" fill="#FF4ECD"/>
<path d="M298.381 114.725C305.141 108.325 315.039 108.547 321.492 115.334C327.39 121.561 327.643 131.992 320.857 138.445C314.635 144.343 304.204 143.534 298.306 137.307C291.901 130.521 292.155 120.623 298.381 114.725Z" fill="#FF4ECD"/>
<path d="M385.707 106.342C391.96 100.422 402.418 101.28 408.343 107.484C414.769 114.244 414.467 124.164 408.263 130.067C401.454 136.493 391.556 136.266 385.152 129.458C379.254 123.253 378.978 112.773 385.707 106.342Z" fill="#FF4ECD"/>
<path d="M337.893 145.278C346.373 137.283 360.119 138.167 368.168 146.625C376.195 155.131 375.812 168.318 367.355 176.345C358.875 184.398 345.128 184.593 337.079 176.113C329.062 167.629 329.439 153.331 337.893 145.278Z" fill="#FF4ECD"/>
<path d="M155.577 409.608C151.729 413.506 151.791 420.11 156.2 424.466C160.097 428.315 166.706 428.288 170.542 424.39C174.933 419.959 174.884 413.355 171.008 409.528C166.577 405.173 159.995 405.173 155.577 409.608Z" fill="#FF4ECD"/>
<path d="M84.0091 339.687C80.2136 343.563 80.2136 350.167 84.1069 353.994C88.5513 358.394 95.129 358.345 98.9912 354.469C103.369 350.043 103.293 343.434 98.9023 339.029C95.009 335.181 88.4046 335.261 84.0091 339.687Z" fill="#FF4ECD"/>
<path d="M58.3186 373.709C55.2076 376.9 55.2298 382.238 58.372 385.376C62.0031 388.976 67.3941 388.922 70.4963 385.758C74.1052 382.162 74.0519 376.776 70.4208 373.202C67.2697 370.091 61.8875 370.118 58.3186 373.709Z" fill="#FF4ECD"/>
<path d="M123.108 439.606C119.993 442.77 120.006 448.112 123.171 451.25C126.779 454.819 132.157 454.797 135.282 451.654C138.837 448.01 138.837 442.646 135.193 439.103C132.046 435.957 126.677 435.957 123.108 439.606Z" fill="#FF4ECD"/>
<path d="M73.6142 425.221C69.8053 429.097 69.8053 435.701 73.7031 439.572C77.5608 443.368 84.1919 443.345 88.0408 439.448C92.3563 435.043 92.3429 428.412 88.4985 424.563C84.6097 420.768 77.9919 420.821 73.6142 425.221Z" fill="#FF4ECD"/>
<path d="M190.294 370.977C183.726 377.609 184.334 388.066 190.423 394.088C197.09 400.666 206.979 400.617 213.534 393.986C219.583 387.862 219.521 377.969 212.876 371.409C206.796 365.355 196.308 364.875 190.294 370.977Z" fill="#FF4ECD"/>
<path d="M114.426 295.971C107.858 302.629 107.933 312.527 114.551 319.082C120.675 325.104 131.106 325.589 137.662 318.958C143.684 312.856 143.129 302.398 137.026 296.376C130.386 289.82 120.449 289.869 114.426 295.971Z" fill="#FF4ECD"/>
<path d="M104.262 383.152C98.1998 389.254 98.8309 399.729 104.911 405.756C111.555 412.316 121.453 412.262 127.493 406.191C134.084 399.48 134.035 389.609 127.377 383.027C121.284 377.027 110.804 376.52 104.262 383.152Z" fill="#FF4ECD"/>
<path d="M144.143 336.118C135.944 344.447 136.575 358.22 144.877 366.416C153.192 374.665 166.419 374.54 174.597 366.238C182.823 357.936 183.317 344.167 175.014 335.963C166.686 327.741 152.37 327.843 144.143 336.118Z" fill="#FF4ECD"/>
</svg>
