<svg width="72" height="72" viewBox="0 0 72 72" fill="none" xmlns="http://www.w3.org/2000/svg">
<path d="M31.5812 32.0704C29.9918 33.5798 27.5962 33.4379 26.0881 31.8429C24.6569 30.3373 24.6412 27.9341 26.2306 26.4285C27.745 24.9978 30.2156 25.0609 31.6499 26.5716C33.1599 28.1616 33.0899 30.636 31.5812 32.0704ZM45.2986 46.5305C43.7111 48.0362 41.3118 47.8937 39.8736 46.3849C38.3711 44.7937 38.4349 42.4799 40.023 40.9667C41.5318 39.5355 43.9311 39.5217 45.4367 41.1092C46.8717 42.6218 46.808 45.0955 45.2986 46.5305Z" fill="#FF4ECD"/>
<path d="M39.3177 39.6165C37.4277 41.4109 34.569 41.2365 32.8709 39.4459C31.0734 37.5565 31.0659 34.7008 32.9527 32.9102C34.7471 31.2051 37.694 31.2833 39.4814 33.1739C41.1871 34.9714 41.1083 37.9121 39.3177 39.6165Z" fill="#FF4ECD"/>
<path d="M25.1326 38.6376C23.9438 39.7632 22.0076 39.642 20.877 38.4495C19.7463 37.2532 19.7982 35.3983 20.9926 34.2695C22.1832 33.1376 24.1163 33.1095 25.2463 34.302C26.3788 35.4939 26.3269 37.5057 25.1326 38.6376Z" fill="#FF4ECD"/>
<path d="M37.1109 51.268C35.9222 52.4005 34.0641 52.3499 32.9353 51.1612C31.8016 49.9693 31.7766 48.0287 32.9709 46.9006C34.1597 45.7656 36.1747 45.8256 37.3034 47.0149C38.4347 48.2068 38.3034 50.1399 37.1109 51.268Z" fill="#FF4ECD"/>
<path d="M22.2535 14.1863C21.7285 13.6344 21.7516 12.7051 22.3866 12.1001C22.9422 11.5732 23.871 11.5944 24.4016 12.1501C25.0053 12.7907 24.9822 13.7126 24.4216 14.2432C23.7891 14.8482 22.8603 14.8232 22.2535 14.1863Z" fill="#FF4ECD"/>
<path d="M11.9884 23.8085C11.4615 23.2528 11.4884 22.331 12.0434 21.8004C12.6821 21.1947 13.6059 21.2204 14.1365 21.7722C14.7378 22.4097 14.7146 23.3385 14.0778 23.9435C13.5209 24.4703 12.5921 24.4497 11.9884 23.8085Z" fill="#FF4ECD"/>
<path d="M8.47708 18.9488C8.04645 18.4969 8.0677 17.7425 8.5177 17.3119C9.0377 16.8169 9.79394 16.8344 10.2233 17.2938C10.7164 17.81 10.6946 18.5613 10.1752 19.0525C9.72457 19.4831 8.96832 19.4688 8.47708 18.9488Z" fill="#FF4ECD"/>
<path d="M17.7783 9.87878C17.3458 9.42316 17.3671 8.67192 17.8208 8.23754C18.3371 7.7463 19.0933 7.76817 19.5239 8.22004C20.0152 8.74004 19.9939 9.49441 19.4758 9.98566C19.0246 10.4163 18.2683 10.3988 17.7783 9.87878Z" fill="#FF4ECD"/>
<path d="M10.7767 11.7542C10.248 11.1954 10.2749 10.2661 10.8267 9.73607C11.3824 9.21295 12.3149 9.23795 12.8467 9.79669C13.443 10.4267 13.4186 11.3592 12.863 11.8861C12.3074 12.4129 11.3786 12.3848 10.7767 11.7542Z" fill="#FF4ECD"/>
<path d="M27.0221 19.7176C26.1165 18.767 26.2372 17.3007 27.1134 16.4714C28.0653 15.5676 29.4559 15.6026 30.3596 16.5539C31.189 17.4326 31.1515 18.8245 30.2034 19.7251C29.3253 20.5613 27.8534 20.597 27.0221 19.7176Z" fill="#FF4ECD"/>
<path d="M16.1372 30.0413C15.2348 29.0907 15.2723 27.6951 16.2229 26.7945C17.0985 25.9695 18.5685 25.9264 19.4729 26.8801C20.3003 27.7563 20.1885 29.2263 19.3129 30.052C18.3591 30.9557 16.9672 30.9201 16.1372 30.0413Z" fill="#FF4ECD"/>
<path d="M14.9589 17.7564C14.1295 16.8814 14.247 15.4107 15.117 14.5814C16.0714 13.6776 17.4645 13.7164 18.2926 14.5926C19.2007 15.5432 19.1651 16.9382 18.2088 17.842C17.3351 18.6713 15.8651 18.7107 14.9589 17.7564Z" fill="#FF4ECD"/>
<path d="M20.4309 24.4807C19.3059 23.2919 19.4322 21.362 20.6216 20.2263C21.8197 19.0945 23.6778 19.1476 24.804 20.3407C25.9359 21.5295 25.964 23.4663 24.7684 24.5982C23.5753 25.73 21.5647 25.6738 20.4309 24.4807Z" fill="#FF4ECD"/>
<path d="M57.6085 50.1216C58.1529 50.6629 59.0816 50.6554 59.6941 50.0329C60.2354 49.4879 60.2279 48.5591 59.6835 48.021C59.0566 47.4054 58.1348 47.4091 57.5935 47.9566C56.9816 48.5766 56.9816 49.5023 57.6085 50.1216Z" fill="#FF4ECD"/>
<path d="M47.7695 60.1849C48.3183 60.7224 49.2433 60.7186 49.7851 60.1743C50.4039 59.5474 50.397 58.6224 49.8558 58.0805C49.2295 57.4687 48.297 57.4755 47.6839 58.0949C47.1433 58.6405 47.1508 59.5693 47.7695 60.1849Z" fill="#FF4ECD"/>
<path d="M52.5575 63.7988C53.0025 64.2363 53.7569 64.2325 54.1987 63.7913C54.7043 63.2856 54.6968 62.5281 54.2519 62.0894C53.7431 61.5875 52.9887 61.5875 52.4825 62.0969C52.0481 62.5419 52.0481 63.2969 52.5575 63.7988Z" fill="#FF4ECD"/>
<path d="M61.8184 54.6926C62.2634 55.1269 63.0221 55.1269 63.4596 54.6788C63.9652 54.1726 63.9584 53.4151 63.5165 52.9769C63.0077 52.4713 62.2496 52.4782 61.7477 52.9907C61.3096 53.4326 61.3096 54.1907 61.8184 54.6926Z" fill="#FF4ECD"/>
<path d="M59.7942 61.6518C60.346 62.1855 61.2748 62.1824 61.8154 61.638C62.3529 61.0968 62.3492 60.1605 61.8017 59.623C61.1823 59.0105 60.2498 59.0137 59.7085 59.5587C59.171 60.103 59.1823 61.0362 59.7942 61.6518Z" fill="#FF4ECD"/>
<path d="M52.1772 45.241C53.1059 46.1666 54.5766 46.0778 55.4234 45.2235C56.3484 44.291 56.3415 42.8991 55.4091 41.9772C54.5478 41.1266 53.1566 41.1335 52.2341 42.0666C51.3866 42.9241 51.3153 44.3979 52.1772 45.241Z" fill="#FF4ECD"/>
<path d="M41.6261 55.9097C42.5586 56.8347 43.9505 56.8247 44.8799 55.8916C45.7236 55.0303 45.7911 53.5672 44.8586 52.6422C43.9967 51.7953 42.5299 51.8735 41.683 52.7341C40.7649 53.6703 40.7718 55.0628 41.6261 55.9097Z" fill="#FF4ECD"/>
<path d="M53.8887 57.341C54.743 58.1917 56.2168 58.1029 57.0605 57.2492C57.9893 56.3092 57.9786 54.9204 57.1211 54.0736C56.1886 53.1517 54.7924 53.1548 53.8712 54.0911C53.0199 54.9448 52.9524 56.4223 53.8887 57.341Z" fill="#FF4ECD"/>
<path d="M47.2717 51.7274C48.4392 52.8843 50.3761 52.7949 51.5361 51.6274C52.6898 50.4599 52.6748 48.6018 51.5073 47.4455C50.3398 46.2881 48.4036 46.2205 47.2499 47.3918C46.0899 48.563 46.1042 50.5736 47.2717 51.7274Z" fill="#FF4ECD"/>
<path d="M38.1796 26.0787C39.3546 24.9287 39.3046 22.9894 38.1584 21.8181C37.0052 20.6431 35.1509 20.6225 33.9759 21.7725C32.7996 22.9188 32.6996 24.8512 33.8478 26.0262C34.9977 27.2006 37.0121 27.225 38.1796 26.0787Z" fill="#FF4ECD"/>
<path d="M50.3467 38.5314C51.5217 37.3852 51.5461 35.5239 50.4036 34.3514C49.2505 33.1733 47.3143 33.0771 46.1393 34.2233C44.9649 35.3695 44.9436 37.3852 46.0899 38.5595C47.2355 39.7345 49.1717 39.6814 50.3467 38.5314Z" fill="#FF4ECD"/>
<path d="M39.9311 31.5792C38.4255 29.988 38.5636 27.5892 40.1586 26.0867C41.668 24.6561 44.0674 24.6417 45.5767 26.2298C47.0005 27.7386 46.9367 30.2167 45.4274 31.6436C43.8399 33.1524 41.3692 33.0849 39.9311 31.5792ZM25.4719 45.2913C23.9675 43.7037 24.11 41.3043 25.6194 39.8768C27.2068 38.3681 29.5293 38.4281 31.0337 40.0162C32.4662 41.5256 32.4806 43.9281 30.8931 45.4338C29.38 46.8688 26.9056 46.8044 25.4719 45.2913Z" fill="#FF4ECD"/>
<path d="M57.8141 22.2489C58.3697 21.722 59.3022 21.7501 59.9003 22.3801C60.4272 22.9395 60.3984 23.8651 59.8503 24.392C59.2128 25.0013 58.2841 24.9757 57.7572 24.417C57.1516 23.7826 57.1803 22.8539 57.8141 22.2489Z" fill="#FF4ECD"/>
<path d="M48.1897 11.9896C48.7447 11.4627 49.6778 11.484 50.2047 12.0396C50.8097 12.6771 50.7815 13.5983 50.2259 14.1333C49.5922 14.7383 48.6597 14.7096 48.0578 14.0758C47.5309 13.5127 47.5559 12.5915 48.1897 11.9896Z" fill="#FF4ECD"/>
<path d="M53.0517 8.47235C53.5036 8.04173 54.2617 8.06298 54.6924 8.51485C55.1836 9.03484 55.1661 9.78609 54.7067 10.2167C54.1942 10.7117 53.4392 10.6867 52.9449 10.1705C52.5142 9.71484 52.5355 8.9636 53.0517 8.47235Z" fill="#FF4ECD"/>
<path d="M62.1226 17.771C62.5783 17.3435 63.3332 17.3623 63.7639 17.8135C64.2514 18.3335 64.2339 19.0916 63.7814 19.5191C63.2614 20.0098 62.507 19.9891 62.0158 19.4729C61.5883 19.0204 61.6033 18.2623 62.1226 17.771Z" fill="#FF4ECD"/>
<path d="M60.2497 10.7728C60.8053 10.2422 61.7341 10.2672 62.2616 10.8228C62.7922 11.3784 62.7635 12.3109 62.2078 12.8378C61.5741 13.4359 60.6416 13.4146 60.1147 12.859C59.591 12.3065 59.616 11.374 60.2497 10.7728Z" fill="#FF4ECD"/>
<path d="M52.282 27.0151C53.2289 26.1151 54.7026 26.232 55.532 27.1076C56.432 28.0582 56.397 29.4463 55.4426 30.3538C54.5701 31.1832 53.1782 31.1445 52.2707 30.1932C51.442 29.322 51.4064 27.8445 52.282 27.0151Z" fill="#FF4ECD"/>
<path d="M41.9598 16.1332C42.9105 15.2333 44.3023 15.2645 45.2098 16.2189C46.0392 17.0945 46.0748 18.5614 45.1204 19.4688C44.2455 20.2982 42.7786 20.1845 41.9492 19.3088C41.0486 18.3545 41.0842 16.9626 41.9598 16.1332Z" fill="#FF4ECD"/>
<path d="M54.2402 14.9544C55.1195 14.1219 56.5901 14.2425 57.4233 15.115C58.327 16.0656 58.2845 17.4606 57.412 18.2906C56.4545 19.1944 55.0627 19.1625 54.162 18.205C53.3327 17.3325 53.2939 15.8588 54.2402 14.9544Z" fill="#FF4ECD"/>
<path d="M47.516 20.4298C48.7085 19.3054 50.6416 19.4298 51.7735 20.6192C52.9022 21.8154 52.8485 23.6698 51.6591 24.7985C50.4666 25.931 48.5335 25.9585 47.4016 24.766C46.2742 23.5729 46.3273 21.5623 47.516 20.4298Z" fill="#FF4ECD"/>
<path d="M21.8781 57.6012C21.3368 58.1493 21.3456 59.078 21.9656 59.6905C22.5137 60.2318 23.4431 60.228 23.9824 59.6799C24.5999 59.0568 24.593 58.1281 24.048 57.5899C23.4249 56.9774 22.4993 56.9774 21.8781 57.6012Z" fill="#FF4ECD"/>
<path d="M11.8136 47.7685C11.2799 48.3135 11.2799 49.2422 11.8274 49.7804C12.4524 50.3991 13.3774 50.3922 13.9205 49.8472C14.5361 49.2247 14.5255 48.2954 13.908 47.676C13.3605 47.1347 12.4318 47.146 11.8136 47.7685Z" fill="#FF4ECD"/>
<path d="M8.20103 52.5528C7.76353 53.0016 7.76665 53.7522 8.20853 54.1934C8.71915 54.6997 9.47727 54.6922 9.91351 54.2472C10.421 53.7416 10.4135 52.9841 9.90289 52.4816C9.45977 52.0441 8.7029 52.0478 8.20103 52.5528Z" fill="#FF4ECD"/>
<path d="M17.3122 61.8195C16.874 62.2645 16.8759 63.0158 17.3209 63.457C17.8284 63.9589 18.5847 63.9558 19.024 63.5139C19.524 63.0014 19.524 62.247 19.0115 61.7489C18.569 61.3064 17.814 61.3064 17.3122 61.8195Z" fill="#FF4ECD"/>
<path d="M10.3521 59.7967C9.81645 60.3417 9.81645 61.2704 10.3646 61.8148C10.9071 62.3486 11.8396 62.3454 12.3808 61.7973C12.9877 61.1779 12.9858 60.2454 12.4452 59.7042C11.8983 59.1704 10.9677 59.1779 10.3521 59.7967Z" fill="#FF4ECD"/>
<path d="M26.7601 52.1687C25.8363 53.1012 25.922 54.5718 26.7782 55.4187C27.7157 56.3437 29.1063 56.3368 30.0282 55.4043C30.8788 54.5431 30.87 53.1518 29.9357 52.2294C29.0807 51.3781 27.6057 51.3106 26.7601 52.1687Z" fill="#FF4ECD"/>
<path d="M16.0912 41.6209C15.1675 42.5572 15.1781 43.9491 16.1087 44.8709C16.97 45.7178 18.4368 45.7859 19.3587 44.8534C20.2056 43.9953 20.1274 42.5247 19.2693 41.6778C18.3356 40.7559 16.9381 40.7628 16.0912 41.6209Z" fill="#FF4ECD"/>
<path d="M14.6619 53.8807C13.8094 54.7388 13.8981 56.2119 14.7531 57.0594C15.6875 57.9819 17.0794 57.9744 17.9287 57.1207C18.8556 56.1769 18.8487 54.7888 17.9125 53.8632C17.0556 53.0194 15.5819 52.9482 14.6619 53.8807Z" fill="#FF4ECD"/>
<path d="M20.2701 47.2666C19.117 48.4378 19.2057 50.3747 20.3732 51.5272C21.5426 52.6872 23.4026 52.6697 24.5526 51.5022C25.7094 50.3347 25.7788 48.3985 24.6113 47.2447C23.4401 46.0885 21.427 46.1029 20.2701 47.2666Z" fill="#FF4ECD"/>
</svg>
