<svg width="256" height="256" viewBox="0 0 256 256" fill="none" xmlns="http://www.w3.org/2000/svg">
<path d="M112.289 114.028C106.638 119.395 98.1203 118.89 92.7581 113.219C87.6692 107.866 87.6137 99.3212 93.2648 93.9679C98.6492 88.8811 107.434 89.1056 112.534 94.4768C117.902 100.13 117.653 108.928 112.289 114.028ZM161.062 165.442C155.418 170.795 146.887 170.289 141.773 164.924C136.431 159.266 136.658 151.04 142.304 145.659C147.669 140.571 156.2 140.522 161.553 146.166C166.655 151.544 166.429 160.34 161.062 165.442Z" fill="#FF4ECD"/>
<path d="M139.796 140.859C133.076 147.239 122.912 146.619 116.874 140.252C110.483 133.534 110.457 123.381 117.165 117.014C123.545 110.952 134.023 111.229 140.379 117.952C146.443 124.343 146.163 134.799 139.796 140.859Z" fill="#FF4ECD"/>
<path d="M89.3605 137.378C85.1339 141.38 78.2495 140.949 74.2295 136.709C70.2095 132.456 70.394 125.86 74.6406 121.847C78.8739 117.823 85.7472 117.723 89.765 121.963C93.7916 126.2 93.6072 133.354 89.3605 137.378Z" fill="#FF4ECD"/>
<path d="M131.95 182.286C127.723 186.313 121.117 186.133 117.103 181.906C113.072 177.669 112.983 170.769 117.23 166.758C121.457 162.722 128.621 162.935 132.634 167.164C136.657 171.402 136.19 178.275 131.95 182.286Z" fill="#FF4ECD"/>
<path d="M79.1232 50.4402C77.2565 48.478 77.3387 45.1736 79.5965 43.0225C81.572 41.1492 84.8742 41.2247 86.7609 43.2003C88.9075 45.478 88.8253 48.7558 86.832 50.6425C84.5831 52.7936 81.2809 52.7047 79.1232 50.4402Z" fill="#FF4ECD"/>
<path d="M42.6251 84.6524C40.7518 82.6769 40.8473 79.3991 42.8207 77.5125C45.0917 75.3591 48.3762 75.4502 50.2628 77.4125C52.4006 79.6791 52.3184 82.9813 50.0539 85.1324C48.074 87.0057 44.7718 86.9324 42.6251 84.6524Z" fill="#FF4ECD"/>
<path d="M30.1405 67.3733C28.6094 65.7666 28.6849 63.0844 30.2849 61.5533C32.1338 59.7933 34.8227 59.8555 36.3493 61.4889C38.1027 63.3244 38.0249 65.9955 36.1782 67.7422C34.576 69.2733 31.8872 69.2222 30.1405 67.3733Z" fill="#FF4ECD"/>
<path d="M63.2119 35.1246C61.6741 33.5046 61.7497 30.8335 63.363 29.289C65.1985 27.5424 67.8874 27.6202 69.4185 29.2268C71.1652 31.0757 71.0896 33.7579 69.2474 35.5046C67.643 37.0357 64.9541 36.9734 63.2119 35.1246Z" fill="#FF4ECD"/>
<path d="M38.3174 41.7926C36.4374 39.806 36.5329 36.5016 38.4952 34.6171C40.4707 32.7571 43.7862 32.846 45.6773 34.8327C47.7973 37.0727 47.7107 40.3882 45.7351 42.2615C43.7596 44.1348 40.4574 44.0348 38.3174 41.7926Z" fill="#FF4ECD"/>
<path d="M96.0782 70.1071C92.8582 66.7271 93.2871 61.5138 96.4026 58.5649C99.787 55.3516 104.731 55.476 107.945 58.8582C110.894 61.9827 110.76 66.9315 107.389 70.1337C104.267 73.107 99.0337 73.2337 96.0782 70.1071Z" fill="#FF4ECD"/>
<path d="M57.377 106.814C54.1681 103.434 54.3014 98.4715 57.6814 95.2693C60.7947 92.336 66.0214 92.1826 69.2369 95.5737C72.1791 98.6892 71.7813 103.916 68.668 106.851C65.2769 110.065 60.3281 109.938 57.377 106.814Z" fill="#FF4ECD"/>
<path d="M53.1871 63.1338C50.2382 60.0227 50.656 54.7939 53.7493 51.845C57.1426 48.6317 62.0959 48.7695 65.0403 51.885C68.2692 55.265 68.1425 60.2249 64.7425 63.4383C61.6359 66.3871 56.4093 66.5271 53.1871 63.1338Z" fill="#FF4ECD"/>
<path d="M72.6434 87.0425C68.6435 82.8159 69.0924 75.9537 73.3212 71.9159C77.5812 67.8915 84.1878 68.0804 88.1922 72.3226C92.2166 76.5492 92.3166 83.4359 88.0656 87.4603C83.8234 91.4847 76.6745 91.2847 72.6434 87.0425Z" fill="#FF4ECD"/>
<path d="M204.83 178.21C206.766 180.135 210.068 180.108 212.246 177.895C214.17 175.957 214.144 172.655 212.208 170.741C209.979 168.552 206.701 168.566 204.777 170.512C202.601 172.717 202.601 176.008 204.83 178.21Z" fill="#FF4ECD"/>
<path d="M169.847 213.991C171.798 215.902 175.087 215.888 177.014 213.953C179.214 211.724 179.189 208.435 177.265 206.508C175.038 204.333 171.723 204.357 169.543 206.56C167.621 208.5 167.647 211.802 169.847 213.991Z" fill="#FF4ECD"/>
<path d="M186.871 226.84C188.453 228.396 191.135 228.382 192.706 226.813C194.504 225.016 194.477 222.322 192.895 220.762C191.086 218.978 188.404 218.978 186.604 220.789C185.06 222.371 185.06 225.056 186.871 226.84Z" fill="#FF4ECD"/>
<path d="M219.798 194.462C221.38 196.007 224.078 196.007 225.634 194.414C227.431 192.614 227.407 189.92 225.836 188.362C224.027 186.565 221.331 186.589 219.547 188.411C217.989 189.982 217.989 192.678 219.798 194.462Z" fill="#FF4ECD"/>
<path d="M212.601 219.206C214.563 221.104 217.866 221.093 219.788 219.157C221.699 217.233 221.686 213.904 219.739 211.993C217.537 209.815 214.221 209.826 212.297 211.764C210.386 213.7 210.426 217.017 212.601 219.206Z" fill="#FF4ECD"/>
<path d="M185.518 160.857C188.821 164.148 194.049 163.832 197.061 160.795C200.349 157.479 200.325 152.53 197.009 149.252C193.947 146.228 189.001 146.252 185.721 149.57C182.707 152.619 182.454 157.859 185.518 160.857Z" fill="#FF4ECD"/>
<path d="M148.004 198.79C151.319 202.079 156.268 202.043 159.572 198.726C162.572 195.663 162.812 190.461 159.497 187.172C156.432 184.161 151.217 184.439 148.206 187.499C144.941 190.828 144.966 195.779 148.004 198.79Z" fill="#FF4ECD"/>
<path d="M191.604 203.879C194.642 206.904 199.882 206.588 202.882 203.553C206.184 200.21 206.146 195.273 203.097 192.262C199.782 188.984 194.817 188.995 191.542 192.324C188.515 195.359 188.275 200.613 191.604 203.879Z" fill="#FF4ECD"/>
<path d="M168.077 183.92C172.228 188.033 179.115 187.715 183.239 183.564C187.341 179.413 187.288 172.806 183.137 168.695C178.986 164.58 172.101 164.34 167.999 168.504C163.875 172.669 163.926 179.817 168.077 183.92Z" fill="#FF4ECD"/>
<path d="M135.75 92.7244C139.927 88.6356 139.75 81.7401 135.674 77.5756C131.574 73.3979 124.981 73.3246 120.803 77.4134C116.621 81.4889 116.265 88.36 120.348 92.5378C124.436 96.7133 131.599 96.8 135.75 92.7244Z" fill="#FF4ECD"/>
<path d="M179.01 137C183.188 132.925 183.275 126.307 179.213 122.138C175.113 117.949 168.228 117.607 164.051 121.683C159.875 125.758 159.799 132.925 163.875 137.1C167.948 141.278 174.833 141.089 179.01 137Z" fill="#FF4ECD"/>
<path d="M141.977 112.282C136.624 106.624 137.115 98.0949 142.786 92.7526C148.153 87.6659 156.684 87.6148 162.051 93.2615C167.113 98.626 166.886 107.437 161.52 112.511C155.875 117.875 147.091 117.635 141.977 112.282ZM90.5666 161.036C85.2178 155.391 85.7245 146.86 91.0911 141.784C96.7355 136.42 104.993 136.633 110.342 142.28C115.435 147.647 115.486 156.189 109.842 161.542C104.462 166.645 95.6644 166.416 90.5666 161.036Z" fill="#FF4ECD"/>
<path d="M205.561 79.107C207.537 77.2337 210.852 77.3337 212.979 79.5737C214.852 81.5626 214.75 84.8536 212.801 86.727C210.535 88.8936 207.232 88.8025 205.359 86.8159C203.206 84.5603 203.308 81.2581 205.561 79.107Z" fill="#FF4ECD"/>
<path d="M171.341 42.6296C173.314 40.7562 176.632 40.8318 178.505 42.8073C180.657 45.074 180.557 48.3495 178.581 50.2517C176.328 52.4028 173.012 52.3006 170.872 50.0473C168.999 48.0451 169.088 44.7695 171.341 42.6296Z" fill="#FF4ECD"/>
<path d="M188.629 30.1238C190.235 28.5927 192.931 28.6683 194.462 30.2749C196.209 32.1238 196.146 34.7949 194.513 36.326C192.691 38.086 190.006 37.9971 188.249 36.1616C186.718 34.5416 186.793 31.8705 188.629 30.1238Z" fill="#FF4ECD"/>
<path d="M220.881 63.1857C222.501 61.6657 225.185 61.7324 226.716 63.3368C228.45 65.1857 228.387 67.8812 226.779 69.4012C224.93 71.1457 222.247 71.0723 220.501 69.2368C218.981 67.6279 219.034 64.9324 220.881 63.1857Z" fill="#FF4ECD"/>
<path d="M214.221 38.3032C216.196 36.4165 219.499 36.5054 221.374 38.481C223.261 40.4565 223.159 43.772 221.183 45.6454C218.93 47.772 215.614 47.6965 213.741 45.7209C211.879 43.7565 211.968 40.4409 214.221 38.3032Z" fill="#FF4ECD"/>
<path d="M185.892 96.0537C189.259 92.8537 194.499 93.2692 197.447 96.3825C200.647 99.7625 200.523 104.698 197.13 107.925C194.027 110.874 189.079 110.736 185.852 107.354C182.905 104.256 182.779 99.0025 185.892 96.0537Z" fill="#FF4ECD"/>
<path d="M149.191 57.3626C152.571 54.1626 157.519 54.2737 160.746 57.667C163.695 60.7803 163.822 65.9959 160.428 69.2225C157.317 72.1714 152.102 71.7669 149.153 68.6536C145.951 65.2603 146.077 60.3114 149.191 57.3626Z" fill="#FF4ECD"/>
<path d="M192.854 53.1711C195.98 50.2111 201.209 50.64 204.171 53.7422C207.385 57.1222 207.234 62.0821 204.131 65.0332C200.727 68.2466 195.778 68.1332 192.576 64.7288C189.627 61.6266 189.489 56.3866 192.854 53.1711Z" fill="#FF4ECD"/>
<path d="M168.946 72.6391C173.186 68.6413 180.059 69.0835 184.084 73.3124C188.097 77.5657 187.906 84.159 183.677 88.1723C179.437 92.1989 172.564 92.2967 168.539 88.0567C164.531 83.8145 164.719 76.6657 168.946 72.6391Z" fill="#FF4ECD"/>
<path d="M77.7885 204.804C75.8641 206.753 75.8952 210.055 78.0996 212.233C80.0485 214.157 83.3529 214.144 85.2707 212.195C87.4662 209.98 87.4418 206.677 85.504 204.764C83.2885 202.586 79.9974 202.586 77.7885 204.804Z" fill="#FF4ECD"/>
<path d="M42.0044 169.844C40.1067 171.781 40.1067 175.084 42.0533 176.997C44.2755 179.197 47.5644 179.172 49.4955 177.235C51.6844 175.021 51.6466 171.717 49.451 169.515C47.5044 167.59 44.2022 167.63 42.0044 169.844Z" fill="#FF4ECD"/>
<path d="M29.1592 186.855C27.6037 188.45 27.6148 191.119 29.1859 192.688C31.0014 194.488 33.6969 194.461 35.2481 192.879C37.0525 191.081 37.0258 188.388 35.2103 186.601C33.6347 185.046 30.9436 185.059 29.1592 186.855Z" fill="#FF4ECD"/>
<path d="M61.5541 219.803C59.9963 221.385 60.003 224.056 61.5852 225.625C63.3896 227.409 66.0785 227.398 67.6407 225.827C69.4185 224.005 69.4185 221.323 67.5963 219.552C66.0229 217.978 63.3385 217.978 61.5541 219.803Z" fill="#FF4ECD"/>
<path d="M36.8071 212.611C34.9027 214.548 34.9027 217.851 36.8515 219.786C38.7804 221.684 42.0959 221.673 44.0204 219.724C46.1781 217.522 46.1715 214.206 44.2493 212.282C42.3048 210.384 38.996 210.411 36.8071 212.611Z" fill="#FF4ECD"/>
<path d="M95.1471 185.489C91.8626 188.804 92.1671 194.033 95.2115 197.044C98.5448 200.333 103.489 200.309 106.767 196.993C109.791 193.931 109.76 188.984 106.438 185.704C103.398 182.678 98.1537 182.438 95.1471 185.489Z" fill="#FF4ECD"/>
<path d="M57.2132 147.986C53.9288 151.314 53.9666 156.263 57.2755 159.541C60.3377 162.552 65.5532 162.794 68.8309 159.479C71.842 156.428 71.5643 151.199 68.5132 148.188C65.1932 144.91 60.2243 144.935 57.2132 147.986Z" fill="#FF4ECD"/>
<path d="M52.131 191.576C49.0999 194.627 49.4155 199.865 52.4554 202.878C55.7776 206.158 60.7265 206.131 63.7465 203.096C67.042 199.74 67.0176 194.805 63.6887 191.514C60.6421 188.514 55.4021 188.26 52.131 191.576Z" fill="#FF4ECD"/>
<path d="M72.0716 168.059C67.9716 172.224 68.2872 179.11 72.4383 183.208C76.596 187.332 83.2093 187.27 87.2982 183.119C91.4115 178.968 91.6582 172.084 87.5071 167.981C83.3427 163.87 76.1849 163.921 72.0716 168.059Z" fill="#FF4ECD"/>
</svg>
