<svg width="48" height="48" viewBox="0 0 48 48" fill="none" xmlns="http://www.w3.org/2000/svg">
<path d="M21.0541 21.3802C19.9946 22.3865 18.3975 22.2919 17.3921 21.2286C16.4379 20.2248 16.4275 18.6227 17.4871 17.6189C18.4966 16.6652 20.1437 16.7073 21.1 17.7144C22.1066 18.7744 22.06 20.424 21.0541 21.3802ZM30.1991 31.0203C29.1407 32.0241 27.5412 31.9291 26.5824 30.9232C25.5808 29.8624 25.6233 28.3199 26.682 27.3111C27.6878 26.3569 29.2874 26.3478 30.2912 27.4061C31.2478 28.4145 31.2053 30.0636 30.1991 31.0203Z" fill="#FF4ECD"/>
<path d="M26.2118 26.411C24.9518 27.6072 23.046 27.491 21.9139 26.2972C20.7156 25.0376 20.7106 23.1339 21.9685 21.9401C23.1647 20.8034 25.1293 20.8555 26.321 22.1159C27.458 23.3143 27.4055 25.2747 26.2118 26.411Z" fill="#FF4ECD"/>
<path d="M16.755 25.7584C15.9625 26.5088 14.6717 26.428 13.918 25.633C13.1642 24.8355 13.1988 23.5988 13.9951 22.8463C14.7888 22.0917 16.0775 22.073 16.8309 22.868C17.5859 23.6626 17.5513 25.0038 16.755 25.7584Z" fill="#FF4ECD"/>
<path d="M24.7406 34.1786C23.9481 34.9336 22.7094 34.8999 21.9569 34.1074C21.201 33.3128 21.1844 32.0191 21.9806 31.267C22.7731 30.5103 24.1164 30.5503 24.8689 31.3432C25.6231 32.1378 25.5356 33.4266 24.7406 34.1786Z" fill="#FF4ECD"/>
<path d="M14.8358 9.45751C14.4858 9.0896 14.5012 8.47002 14.9246 8.06669C15.295 7.71544 15.9141 7.72961 16.2679 8.10002C16.6704 8.5271 16.655 9.14168 16.2812 9.49543C15.8596 9.89876 15.2404 9.88209 14.8358 9.45751Z" fill="#FF4ECD"/>
<path d="M7.99227 15.8723C7.64102 15.5019 7.65894 14.8873 8.02893 14.5336C8.45476 14.1298 9.07059 14.1469 9.42434 14.5148C9.82517 14.9398 9.80976 15.559 9.38517 15.9623C9.01393 16.3135 8.39476 16.2998 7.99227 15.8723Z" fill="#FF4ECD"/>
<path d="M5.65147 12.6324C5.36438 12.3312 5.37855 11.8283 5.67855 11.5412C6.02521 11.2112 6.52938 11.2229 6.81562 11.5291C7.14437 11.8733 7.12979 12.3741 6.78354 12.7016C6.48313 12.9887 5.97896 12.9791 5.65147 12.6324Z" fill="#FF4ECD"/>
<path d="M11.8525 6.58584C11.5641 6.28209 11.5783 5.78126 11.8808 5.49168C12.225 5.16418 12.7291 5.17876 13.0162 5.48001C13.3437 5.82667 13.3295 6.32959 12.9841 6.65709C12.6833 6.94417 12.1791 6.9325 11.8525 6.58584Z" fill="#FF4ECD"/>
<path d="M7.18449 7.83608C6.832 7.46358 6.84991 6.844 7.21783 6.49067C7.58824 6.14192 8.2099 6.15859 8.56448 6.53109C8.96198 6.95109 8.94573 7.57275 8.57532 7.924C8.2049 8.27524 7.58574 8.25649 7.18449 7.83608Z" fill="#FF4ECD"/>
<path d="M18.0148 13.1451C17.411 12.5113 17.4914 11.5338 18.0756 10.9809C18.7102 10.3784 19.6373 10.4017 20.2397 11.0359C20.7927 11.6217 20.7677 12.5496 20.1356 13.1501C19.5502 13.7076 18.5689 13.7313 18.0148 13.1451Z" fill="#FF4ECD"/>
<path d="M10.7582 20.0276C10.1566 19.3938 10.1816 18.4634 10.8153 17.863C11.3991 17.313 12.3791 17.2842 12.982 17.9201C13.5336 18.5042 13.4591 19.4842 12.8753 20.0346C12.2395 20.6371 11.3116 20.6134 10.7582 20.0276Z" fill="#FF4ECD"/>
<path d="M9.97257 11.8376C9.41966 11.2543 9.49799 10.2739 10.078 9.72094C10.7142 9.11844 11.643 9.14427 12.1951 9.72844C12.8005 10.3622 12.7767 11.2922 12.1392 11.8947C11.5567 12.4476 10.5767 12.4738 9.97257 11.8376Z" fill="#FF4ECD"/>
<path d="M13.6208 16.3205C12.8708 15.528 12.955 14.2413 13.7479 13.4842C14.5466 12.7297 15.7854 12.7651 16.5362 13.5605C17.2908 14.353 17.3095 15.6442 16.5124 16.3988C15.717 17.1534 14.3766 17.1159 13.6208 16.3205Z" fill="#FF4ECD"/>
<path d="M38.4058 33.4144C38.7687 33.7752 39.3878 33.7702 39.7962 33.3552C40.157 32.9919 40.152 32.3727 39.7891 32.014C39.3712 31.6036 38.7566 31.6061 38.3958 31.9711C37.9878 32.3844 37.9878 33.0015 38.4058 33.4144Z" fill="#FF4ECD"/>
<path d="M31.8464 40.1232C32.2123 40.4816 32.8289 40.4791 33.1902 40.1162C33.6027 39.6983 33.5981 39.0816 33.2373 38.7203C32.8198 38.3124 32.1981 38.317 31.7894 38.7299C31.4289 39.0937 31.4339 39.7128 31.8464 40.1232Z" fill="#FF4ECD"/>
<path d="M35.0382 42.5325C35.3348 42.8242 35.8377 42.8217 36.1323 42.5275C36.4694 42.1905 36.4644 41.6855 36.1677 41.393C35.8286 41.0584 35.3257 41.0584 34.9882 41.398C34.6986 41.6946 34.6986 42.1979 35.0382 42.5325Z" fill="#FF4ECD"/>
<path d="M41.212 36.4617C41.5087 36.7513 42.0145 36.7513 42.3062 36.4525C42.6432 36.115 42.6387 35.61 42.3441 35.318C42.0049 34.9809 41.4995 34.9855 41.1649 35.3271C40.8728 35.6217 40.8728 36.1271 41.212 36.4617Z" fill="#FF4ECD"/>
<path d="M39.8628 41.1012C40.2307 41.457 40.8499 41.455 41.2103 41.092C41.5686 40.7312 41.5661 40.107 41.2011 39.7487C40.7882 39.3404 40.1665 39.3425 39.8057 39.7058C39.4474 40.0687 39.4549 40.6908 39.8628 41.1012Z" fill="#FF4ECD"/>
<path d="M34.7847 30.1606C35.4039 30.7777 36.3843 30.7186 36.9489 30.149C37.5655 29.5273 37.5609 28.5994 36.9393 27.9848C36.3651 27.4177 35.4376 27.4223 34.8226 28.0444C34.2576 28.6161 34.2101 29.5986 34.7847 30.1606Z" fill="#FF4ECD"/>
<path d="M27.7507 37.2731C28.3723 37.8898 29.3002 37.8831 29.9198 37.2611C30.4823 36.6869 30.5273 35.7115 29.9057 35.0948C29.3311 34.5302 28.3532 34.5823 27.7886 35.1561C27.1765 35.7802 27.1811 36.7086 27.7507 37.2731Z" fill="#FF4ECD"/>
<path d="M35.9257 38.2274C36.4953 38.7944 37.4778 38.7353 38.0403 38.1661C38.6594 37.5394 38.6523 36.6136 38.0807 36.049C37.459 35.4345 36.5282 35.4365 35.914 36.0607C35.3465 36.6299 35.3015 37.6149 35.9257 38.2274Z" fill="#FF4ECD"/>
<path d="M31.5145 34.485C32.2928 35.2562 33.5841 35.1966 34.3574 34.4183C35.1265 33.64 35.1166 32.4012 34.3382 31.6304C33.5599 30.8587 32.2691 30.8137 31.4999 31.5946C30.7266 32.3754 30.7362 33.7158 31.5145 34.485Z" fill="#FF4ECD"/>
<path d="M25.4531 17.3858C26.2364 16.6192 26.2031 15.3263 25.4389 14.5454C24.6702 13.7621 23.4339 13.7483 22.6506 14.515C21.8664 15.2792 21.7998 16.5675 22.5652 17.3508C23.3318 18.1337 24.6747 18.15 25.4531 17.3858Z" fill="#FF4ECD"/>
<path d="M33.5646 25.6876C34.3479 24.9234 34.3641 23.6826 33.6025 22.9009C32.8337 22.1155 31.5429 22.0513 30.7596 22.8155C29.9767 23.5797 29.9625 24.9234 30.7267 25.7063C31.4904 26.4896 32.7812 26.4542 33.5646 25.6876Z" fill="#FF4ECD"/>
<path d="M26.6207 21.0528C25.6169 19.992 25.709 18.3928 26.7723 17.3911C27.7786 16.4373 29.3782 16.4278 30.3844 17.4865C31.3336 18.4924 31.2911 20.1445 30.2848 21.0957C29.2265 22.1016 27.5794 22.0566 26.6207 21.0528ZM16.9812 30.1942C15.9782 29.1358 16.0732 27.5362 17.0795 26.5845C18.1378 25.5787 19.6861 25.6187 20.689 26.6774C21.644 27.6837 21.6536 29.2854 20.5953 30.2892C19.5866 31.2458 17.937 31.2029 16.9812 30.1942Z" fill="#FF4ECD"/>
<path d="M38.5428 14.8325C38.9132 14.4813 39.5349 14.5 39.9336 14.92C40.2849 15.2929 40.2657 15.91 39.9003 16.2613C39.4753 16.6675 38.8561 16.6504 38.5049 16.2779C38.1011 15.855 38.1203 15.2359 38.5428 14.8325Z" fill="#FF4ECD"/>
<path d="M32.1265 7.99302C32.4965 7.64177 33.1185 7.65594 33.4698 8.02635C33.8731 8.45135 33.8544 9.06551 33.4839 9.42218C33.0614 9.82551 32.4398 9.80634 32.0385 9.38384C31.6873 9.00843 31.704 8.39427 32.1265 7.99302Z" fill="#FF4ECD"/>
<path d="M35.3679 5.64821C35.6692 5.36113 36.1746 5.3753 36.4617 5.67655C36.7891 6.02321 36.7775 6.52404 36.4712 6.81112C36.1296 7.14112 35.6262 7.12445 35.2967 6.78029C35.0096 6.47654 35.0237 5.97571 35.3679 5.64821Z" fill="#FF4ECD"/>
<path d="M41.4152 11.8473C41.7189 11.5623 42.2222 11.5748 42.5093 11.8757C42.8343 12.2223 42.8227 12.7277 42.521 13.0127C42.1743 13.3398 41.6714 13.3261 41.3439 12.9819C41.0589 12.6802 41.0689 12.1748 41.4152 11.8473Z" fill="#FF4ECD"/>
<path d="M40.1666 7.18185C40.537 6.82811 41.1561 6.84477 41.5078 7.21519C41.8616 7.5856 41.8424 8.20726 41.472 8.55851C41.0495 8.95726 40.4278 8.94309 40.0766 8.57268C39.7274 8.20435 39.7441 7.58268 40.1666 7.18185Z" fill="#FF4ECD"/>
<path d="M34.8549 18.0101C35.4862 17.4101 36.4687 17.488 37.0216 18.0717C37.6216 18.7055 37.5982 19.6309 36.962 20.2359C36.3803 20.7888 35.4524 20.763 34.8474 20.1288C34.2949 19.548 34.2712 18.563 34.8549 18.0101Z" fill="#FF4ECD"/>
<path d="M27.9733 10.7555C28.6071 10.1555 29.535 10.1763 30.14 10.8125C30.6929 11.3963 30.7166 12.3742 30.0804 12.9792C29.497 13.5321 28.5191 13.4563 27.9662 12.8725C27.3658 12.2363 27.3896 11.3084 27.9733 10.7555Z" fill="#FF4ECD"/>
<path d="M36.1602 9.96959C36.7464 9.41459 37.7268 9.49501 38.2823 10.0767C38.8848 10.7104 38.8564 11.6404 38.2748 12.1937C37.6364 12.7962 36.7085 12.775 36.1081 12.1367C35.5552 11.555 35.5294 10.5725 36.1602 9.96959Z" fill="#FF4ECD"/>
<path d="M31.6775 13.6198C32.4725 12.8703 33.7612 12.9532 34.5158 13.7461C35.2683 14.5436 35.2325 15.7798 34.4396 16.5323C33.6446 17.2873 32.3558 17.3056 31.6013 16.5106C30.8496 15.7152 30.885 14.3748 31.6775 13.6198Z" fill="#FF4ECD"/>
<path d="M14.5854 38.4008C14.2245 38.7662 14.2304 39.3853 14.6437 39.7937C15.0091 40.1545 15.6287 40.152 15.9883 39.7866C16.3999 39.3712 16.3954 38.752 16.032 38.3933C15.6166 37.9849 14.9995 37.9849 14.5854 38.4008Z" fill="#FF4ECD"/>
<path d="M7.87585 31.8457C7.52001 32.209 7.52001 32.8282 7.88501 33.1869C8.30168 33.5994 8.91834 33.5948 9.28042 33.2315C9.69083 32.8165 9.68375 32.1969 9.27209 31.784C8.90709 31.4232 8.28793 31.4307 7.87585 31.8457Z" fill="#FF4ECD"/>
<path d="M5.46735 35.0352C5.17569 35.3344 5.17777 35.8348 5.47235 36.1289C5.81276 36.4664 6.31818 36.4614 6.60901 36.1648C6.94734 35.8277 6.94234 35.3227 6.60193 34.9877C6.30651 34.696 5.80193 34.6985 5.46735 35.0352Z" fill="#FF4ECD"/>
<path d="M11.5414 41.213C11.2493 41.5097 11.2505 42.0105 11.5472 42.3047C11.8855 42.6393 12.3897 42.6372 12.6826 42.3426C13.0159 42.0009 13.0159 41.498 12.6743 41.1659C12.3793 40.8709 11.8759 40.8709 11.5414 41.213Z" fill="#FF4ECD"/>
<path d="M6.9013 39.8645C6.54422 40.2278 6.54422 40.847 6.90963 41.2099C7.2713 41.5657 7.89296 41.5636 8.25379 41.1982C8.65837 40.7853 8.65712 40.1636 8.29671 39.8028C7.93213 39.447 7.31171 39.452 6.9013 39.8645Z" fill="#FF4ECD"/>
<path d="M17.84 34.7791C17.2241 35.4008 17.2812 36.3812 17.8521 36.9458C18.477 37.5624 19.4041 37.5579 20.0187 36.9362C20.5858 36.362 20.5799 35.4345 19.957 34.8195C19.387 34.2521 18.4037 34.2071 17.84 34.7791Z" fill="#FF4ECD"/>
<path d="M10.7276 27.7473C10.1117 28.3715 10.1188 29.2994 10.7392 29.9139C11.3134 30.4785 12.2913 30.5239 12.9059 29.9023C13.4705 29.3302 13.4184 28.3498 12.8463 27.7852C12.2238 27.1706 11.2921 27.1752 10.7276 27.7473Z" fill="#FF4ECD"/>
<path d="M9.77459 35.9205C9.20626 36.4925 9.26543 37.4746 9.83543 38.0396C10.4583 38.6546 11.3862 38.6496 11.9525 38.0804C12.5704 37.4513 12.5658 36.5259 11.9417 35.9088C11.3704 35.3463 10.3879 35.2988 9.77459 35.9205Z" fill="#FF4ECD"/>
<path d="M13.5133 31.5111C12.7446 32.2919 12.8037 33.5832 13.5821 34.3515C14.3616 35.1248 15.6016 35.1132 16.3683 34.3348C17.1395 33.5565 17.1858 32.2657 16.4075 31.4965C15.6266 30.7257 14.2846 30.7353 13.5133 31.5111Z" fill="#FF4ECD"/>
</svg>
