<svg width="192" height="192" viewBox="0 0 192 192" fill="none" xmlns="http://www.w3.org/2000/svg">
<path d="M84.2168 85.521C79.9784 89.5461 73.5902 89.1677 69.5685 84.9143C65.7519 80.8993 65.7102 74.4909 69.9485 70.4759C73.9868 66.6608 80.5751 66.8292 84.4001 70.8575C88.4267 75.0976 88.2401 81.696 84.2168 85.521ZM120.797 124.081C116.563 128.096 110.165 127.716 106.33 123.693C102.323 119.45 102.493 113.28 106.728 109.245C110.752 105.428 117.15 105.391 121.165 109.625C124.991 113.658 124.821 120.255 120.797 124.081Z" fill="#FF4ECD"/>
<path d="M104.847 105.644C99.8075 110.429 92.1842 109.964 87.6559 105.189C82.8626 100.15 82.8426 92.5354 87.8742 87.7604C92.6592 83.2136 100.517 83.422 105.284 88.4637C109.832 93.2571 109.622 101.099 104.847 105.644Z" fill="#FF4ECD"/>
<path d="M67.0204 103.034C63.8504 106.035 58.6871 105.712 55.6721 102.532C52.6571 99.3419 52.7955 94.3953 55.9805 91.3853C59.1554 88.367 64.3104 88.292 67.3237 91.472C70.3437 94.6503 70.2054 100.015 67.0204 103.034Z" fill="#FF4ECD"/>
<path d="M98.9624 136.715C95.7924 139.735 90.8375 139.6 87.8275 136.43C84.8042 133.251 84.7375 128.076 87.9225 125.068C91.0925 122.041 96.4658 122.201 99.4758 125.373C102.492 128.551 102.142 133.706 98.9624 136.715Z" fill="#FF4ECD"/>
<path d="M59.3423 37.8302C57.9423 36.3585 58.0039 33.8802 59.6973 32.2669C61.1789 30.8619 63.6556 30.9186 65.0706 32.4002C66.6805 34.1085 66.6189 36.5669 65.1239 37.9818C63.4372 39.5952 60.9606 39.5285 59.3423 37.8302Z" fill="#FF4ECD"/>
<path d="M31.9688 63.4893C30.5638 62.0076 30.6355 59.5493 32.1155 58.1343C33.8188 56.5193 36.2821 56.5877 37.6971 58.0593C39.3004 59.7593 39.2388 62.236 37.5405 63.8493C36.0555 65.2543 33.5788 65.1993 31.9688 63.4893Z" fill="#FF4ECD"/>
<path d="M22.6054 50.5299C21.457 49.3249 21.5137 47.3133 22.7137 46.1649C24.1004 44.8449 26.117 44.8916 27.262 46.1166C28.577 47.4933 28.5187 49.4966 27.1337 50.8066C25.932 51.9549 23.9154 51.9166 22.6054 50.5299Z" fill="#FF4ECD"/>
<path d="M47.4091 26.3434C46.2558 25.1284 46.3124 23.1251 47.5224 21.9668C48.8991 20.6568 50.9157 20.7151 52.0641 21.9201C53.3741 23.3068 53.3174 25.3184 51.9357 26.6284C50.7324 27.7767 48.7158 27.7301 47.4091 26.3434Z" fill="#FF4ECD"/>
<path d="M28.738 31.3444C27.328 29.8545 27.3997 27.3761 28.8713 25.9628C30.353 24.5678 32.8396 24.6345 34.2579 26.1245C35.8479 27.8045 35.7829 30.2911 34.3013 31.6961C32.8196 33.1011 30.343 33.0261 28.738 31.3444Z" fill="#FF4ECD"/>
<path d="M72.0586 52.5803C69.6436 50.0453 69.9652 46.1353 72.3019 43.9237C74.8402 41.5137 78.5485 41.607 80.9585 44.1437C83.1702 46.487 83.0702 50.1986 80.5418 52.6003C78.2002 54.8303 74.2752 54.9253 72.0586 52.5803Z" fill="#FF4ECD"/>
<path d="M43.0327 80.1102C40.6261 77.5752 40.7261 73.8536 43.2611 71.4519C45.5961 69.2519 49.516 69.137 51.9277 71.6803C54.1343 74.0169 53.836 77.9369 51.501 80.1385C48.9577 82.5485 45.2461 82.4535 43.0327 80.1102Z" fill="#FF4ECD"/>
<path d="M39.8903 47.3504C37.6786 45.017 37.992 41.0954 40.312 38.8837C42.8569 36.4738 46.5719 36.5771 48.7802 38.9137C51.2019 41.4487 51.1069 45.1687 48.5569 47.5787C46.2269 49.7903 42.3069 49.8953 39.8903 47.3504Z" fill="#FF4ECD"/>
<path d="M54.4824 65.2818C51.4824 62.1119 51.8191 56.9652 54.9907 53.9369C58.1857 50.9186 63.1407 51.0603 66.144 54.2419C69.1623 57.4119 69.2373 62.5769 66.049 65.5952C62.8673 68.6135 57.5057 68.4635 54.4824 65.2818Z" fill="#FF4ECD"/>
<path d="M153.623 133.658C155.074 135.101 157.551 135.081 159.184 133.421C160.628 131.968 160.608 129.491 159.156 128.056C157.484 126.414 155.026 126.424 153.583 127.884C151.951 129.538 151.951 132.006 153.623 133.658Z" fill="#FF4ECD"/>
<path d="M127.385 160.493C128.849 161.926 131.315 161.916 132.76 160.465C134.41 158.793 134.392 156.326 132.949 154.881C131.279 153.25 128.792 153.268 127.157 154.92C125.715 156.375 125.735 158.851 127.385 160.493Z" fill="#FF4ECD"/>
<path d="M140.153 170.13C141.34 171.297 143.351 171.287 144.53 170.11C145.878 168.762 145.858 166.742 144.671 165.572C143.315 164.233 141.303 164.233 139.953 165.592C138.795 166.778 138.795 168.792 140.153 170.13Z" fill="#FF4ECD"/>
<path d="M164.849 145.847C166.035 147.005 168.058 147.005 169.225 145.81C170.573 144.46 170.555 142.44 169.377 141.272C168.02 139.924 165.998 139.942 164.66 141.309C163.492 142.487 163.492 144.509 164.849 145.847Z" fill="#FF4ECD"/>
<path d="M159.451 164.405C160.923 165.828 163.399 165.82 164.841 164.368C166.274 162.925 166.264 160.428 164.804 158.995C163.153 157.361 160.666 157.37 159.223 158.823C157.789 160.275 157.819 162.763 159.451 164.405Z" fill="#FF4ECD"/>
<path d="M139.139 120.643C141.615 123.111 145.537 122.874 147.795 120.596C150.262 118.109 150.244 114.398 147.757 111.939C145.46 109.671 141.75 109.689 139.29 112.178C137.03 114.464 136.84 118.394 139.139 120.643Z" fill="#FF4ECD"/>
<path d="M111.003 149.092C113.489 151.559 117.201 151.532 119.679 149.044C121.929 146.747 122.109 142.846 119.623 140.379C117.324 138.121 113.413 138.329 111.154 140.624C108.706 143.121 108.724 146.834 111.003 149.092Z" fill="#FF4ECD"/>
<path d="M143.703 152.909C145.981 155.178 149.911 154.941 152.161 152.664C154.638 150.158 154.61 146.454 152.323 144.196C149.836 141.738 146.113 141.746 143.656 144.243C141.386 146.519 141.206 150.459 143.703 152.909Z" fill="#FF4ECD"/>
<path d="M126.058 137.94C129.171 141.025 134.336 140.786 137.429 137.673C140.506 134.56 140.466 129.605 137.353 126.521C134.239 123.435 129.076 123.255 125.999 126.378C122.906 129.501 122.944 134.863 126.058 137.94Z" fill="#FF4ECD"/>
<path d="M101.812 69.5434C104.946 66.4767 104.812 61.3051 101.756 58.1818C98.6806 55.0484 93.7357 54.9934 90.6023 58.0601C87.4657 61.1167 87.199 66.27 90.2607 69.4034C93.3273 72.535 98.699 72.6 101.812 69.5434Z" fill="#FF4ECD"/>
<path d="M134.258 102.75C137.391 99.6937 137.456 94.7304 134.409 91.6037C131.334 88.4621 126.171 88.2054 123.038 91.2621C119.906 94.3187 119.85 99.6937 122.906 102.825C125.961 105.959 131.124 105.817 134.258 102.75Z" fill="#FF4ECD"/>
<path d="M106.483 84.2113C102.468 79.9679 102.837 73.5712 107.09 69.5645C111.115 65.7494 117.513 65.7111 121.538 69.9462C125.335 73.9695 125.165 80.5779 121.14 84.383C116.906 88.4063 110.318 88.2263 106.483 84.2113ZM67.9251 120.777C63.9135 116.543 64.2935 110.145 68.3184 106.338C72.5517 102.315 78.745 102.475 82.7567 106.71C86.5766 110.735 86.615 117.142 82.3817 121.157C78.3467 124.983 71.7484 124.812 67.9251 120.777Z" fill="#FF4ECD"/>
<path d="M154.171 59.3303C155.653 57.9253 158.139 58.0003 159.734 59.6803C161.139 61.1719 161.063 63.6402 159.601 65.0452C157.901 66.6702 155.424 66.6019 154.019 65.1119C152.404 63.4202 152.481 60.9436 154.171 59.3303Z" fill="#FF4ECD"/>
<path d="M128.506 31.9721C129.986 30.5671 132.474 30.6238 133.879 32.1055C135.492 33.8055 135.417 36.2621 133.936 37.6888C132.246 39.3021 129.759 39.2254 128.154 37.5354C126.749 36.0338 126.816 33.5771 128.506 31.9721Z" fill="#FF4ECD"/>
<path d="M141.472 22.5928C142.677 21.4445 144.698 21.5012 145.847 22.7062C147.157 24.0928 147.11 26.0962 145.885 27.2445C144.518 28.5645 142.505 28.4978 141.187 27.1211C140.038 25.9062 140.095 23.9028 141.472 22.5928Z" fill="#FF4ECD"/>
<path d="M165.661 47.3892C166.876 46.2493 168.889 46.2993 170.037 47.5026C171.337 48.8892 171.291 50.9109 170.084 52.0509C168.697 53.3592 166.686 53.3042 165.376 51.9275C164.236 50.7209 164.276 48.6992 165.661 47.3892Z" fill="#FF4ECD"/>
<path d="M160.666 28.7274C162.147 27.3124 164.624 27.379 166.031 28.8607C167.446 30.3423 167.369 32.829 165.887 34.234C164.197 35.829 161.711 35.7723 160.306 34.2907C158.909 32.8173 158.976 30.3307 160.666 28.7274Z" fill="#FF4ECD"/>
<path d="M139.419 72.0402C141.944 69.6402 145.874 69.9519 148.086 72.2869C150.486 74.8219 150.392 78.5235 147.847 80.9435C145.521 83.1551 141.809 83.0518 139.389 80.5152C137.179 78.1918 137.084 74.2519 139.419 72.0402Z" fill="#FF4ECD"/>
<path d="M111.893 43.0219C114.428 40.622 118.14 40.7053 120.56 43.2503C122.771 45.5853 122.866 49.4969 120.321 51.9169C117.988 54.1285 114.076 53.8252 111.865 51.4902C109.463 48.9452 109.558 45.2336 111.893 43.0219Z" fill="#FF4ECD"/>
<path d="M144.64 39.8783C146.985 37.6583 150.907 37.98 153.129 40.3066C155.539 42.8416 155.425 46.5616 153.099 48.7749C150.545 51.1849 146.834 51.0999 144.432 48.5466C142.22 46.2199 142.117 42.29 144.64 39.8783Z" fill="#FF4ECD"/>
<path d="M126.71 54.4793C129.89 51.4809 135.045 51.8126 138.063 54.9843C141.073 58.1742 140.93 63.1192 137.758 66.1292C134.578 69.1492 129.423 69.2225 126.405 66.0425C123.398 62.8609 123.54 57.4992 126.71 54.4793Z" fill="#FF4ECD"/>
<path d="M58.3415 153.603C56.8982 155.065 56.9215 157.541 58.5748 159.175C60.0365 160.618 62.5148 160.608 63.9531 159.146C65.5998 157.485 65.5814 155.008 64.1281 153.573C62.4665 151.94 59.9982 151.94 58.3415 153.603Z" fill="#FF4ECD"/>
<path d="M31.5034 127.383C30.0801 128.836 30.0801 131.313 31.54 132.748C33.2067 134.398 35.6734 134.379 37.1217 132.926C38.7633 131.266 38.735 128.788 37.0883 127.136C35.6284 125.693 33.1517 125.723 31.5034 127.383Z" fill="#FF4ECD"/>
<path d="M21.8694 140.141C20.7027 141.338 20.7111 143.339 21.8894 144.516C23.2511 145.866 25.2727 145.846 26.436 144.659C27.7894 143.311 27.7694 141.291 26.4077 139.951C25.226 138.784 23.2077 138.794 21.8694 140.141Z" fill="#FF4ECD"/>
<path d="M46.1654 164.852C44.9971 166.039 45.0021 168.042 46.1888 169.219C47.5421 170.557 49.5587 170.549 50.7304 169.37C52.0637 168.004 52.0637 165.992 50.6971 164.664C49.5171 163.484 47.5038 163.484 46.1654 164.852Z" fill="#FF4ECD"/>
<path d="M27.6052 159.458C26.1769 160.911 26.1769 163.388 27.6385 164.84C29.0852 166.263 31.5718 166.255 33.0152 164.793C34.6335 163.141 34.6285 160.655 33.1868 159.211C31.7285 157.788 29.2469 157.808 27.6052 159.458Z" fill="#FF4ECD"/>
<path d="M71.3604 139.117C68.897 141.603 69.1254 145.525 71.4087 147.783C73.9087 150.25 77.617 150.231 80.0753 147.745C82.3436 145.448 82.3203 141.738 79.8286 139.278C77.5486 137.008 73.6153 136.828 71.3604 139.117Z" fill="#FF4ECD"/>
<path d="M42.9098 110.989C40.4464 113.486 40.4748 117.198 42.9564 119.656C45.2531 121.914 49.1647 122.096 51.623 119.609C53.8813 117.321 53.673 113.399 51.3847 111.141C48.8947 108.683 45.1681 108.701 42.9098 110.989Z" fill="#FF4ECD"/>
<path d="M39.0981 143.682C36.8248 145.97 37.0615 149.898 39.3415 152.158C41.8331 154.618 45.5447 154.598 47.8097 152.322C50.2814 149.805 50.2631 146.103 47.7664 143.635C45.4814 141.385 41.5514 141.195 39.0981 143.682Z" fill="#FF4ECD"/>
<path d="M54.0538 126.044C50.9788 129.168 51.2155 134.333 54.3288 137.406C57.4471 140.499 62.407 140.453 65.4737 137.339C68.5587 134.226 68.7437 129.063 65.6304 125.986C62.5071 122.903 57.1388 122.941 54.0538 126.044Z" fill="#FF4ECD"/>
</svg>
