<svg width="128" height="128" viewBox="0 0 128 128" fill="none" xmlns="http://www.w3.org/2000/svg">
<path d="M56.1444 57.0131C53.3189 59.6964 49.06 59.4442 46.3789 56.6087C43.8345 53.932 43.8067 49.6598 46.6323 46.9832C49.3245 44.4398 53.7167 44.5521 56.2666 47.2376C58.9511 50.0643 58.8266 54.4631 56.1444 57.0131ZM80.5309 82.7196C77.7087 85.3963 73.4432 85.1429 70.8865 82.4607C68.2155 79.6318 68.3288 75.5185 71.1521 72.8286C73.8343 70.2841 78.0998 70.2597 80.7765 73.0819C83.3276 75.7708 83.2142 80.1685 80.5309 82.7196Z" fill="#FF4ECD"/>
<path d="M69.8982 70.4281C66.5382 73.6181 61.456 73.3081 58.4372 70.1248C55.2416 66.7659 55.2283 61.6893 58.5827 58.506C61.7727 55.4749 67.0116 55.6138 70.1893 58.9749C73.2215 62.1704 73.0815 67.3982 69.8982 70.4281Z" fill="#FF4ECD"/>
<path d="M44.6803 68.6881C42.5669 70.6892 39.1247 70.4736 37.1148 68.3537C35.1048 66.227 35.197 62.9293 37.3203 60.9226C39.437 58.9104 42.8736 58.8604 44.8825 60.9804C46.8958 63.0993 46.8036 66.6759 44.6803 68.6881Z" fill="#FF4ECD"/>
<path d="M65.975 91.1418C63.8616 93.1551 60.5583 93.0651 58.5517 90.9518C56.5361 88.8329 56.4917 85.3829 58.615 83.3774C60.7283 81.3596 64.3105 81.4663 66.3172 83.5807C68.3283 85.6996 68.0949 89.1362 65.975 91.1418Z" fill="#FF4ECD"/>
<path d="M39.5616 25.2198C38.6283 24.2387 38.6694 22.5865 39.7982 21.5109C40.786 20.5743 42.4371 20.6121 43.3804 21.5998C44.4538 22.7387 44.4127 24.3776 43.416 25.3209C42.2916 26.3965 40.6405 26.352 39.5616 25.2198Z" fill="#FF4ECD"/>
<path d="M21.3127 42.3256C20.376 41.3378 20.4238 39.6989 21.4104 38.7556C22.546 37.6789 24.1882 37.7245 25.1315 38.7056C26.2004 39.8389 26.1593 41.49 25.0271 42.5656C24.0371 43.5022 22.386 43.4656 21.3127 42.3256Z" fill="#FF4ECD"/>
<path d="M15.0704 33.6861C14.3048 32.8828 14.3426 31.5417 15.1426 30.7761C16.067 29.8961 17.4115 29.9273 18.1748 30.7439C19.0515 31.6617 19.0126 32.9972 18.0892 33.8706C17.2881 34.6361 15.9437 34.6106 15.0704 33.6861Z" fill="#FF4ECD"/>
<path d="M31.6061 17.5621C30.8372 16.7521 30.875 15.4165 31.6816 14.6443C32.5994 13.771 33.9438 13.8099 34.7094 14.6132C35.5827 15.5376 35.5449 16.8787 34.6238 17.7521C33.8216 18.5176 32.4772 18.4865 31.6061 17.5621Z" fill="#FF4ECD"/>
<path d="M19.1587 20.8961C18.2187 19.9027 18.2665 18.2505 19.2476 17.3083C20.2354 16.3783 21.8931 16.4228 22.8387 17.4161C23.8987 18.5361 23.8553 20.1939 22.8676 21.1305C21.8798 22.0672 20.2287 22.0172 19.1587 20.8961Z" fill="#FF4ECD"/>
<path d="M48.0392 35.0531C46.4292 33.3631 46.6437 30.7564 48.2014 29.282C49.8936 27.6753 52.3658 27.7376 53.9725 29.4287C55.4469 30.9909 55.3803 33.4653 53.6947 35.0664C52.1336 36.5531 49.517 36.6164 48.0392 35.0531Z" fill="#FF4ECD"/>
<path d="M28.6886 53.4061C27.0842 51.7161 27.1508 49.235 28.8408 47.6339C30.3975 46.1672 33.0108 46.0905 34.6186 47.7861C36.0897 49.3439 35.8908 51.9572 34.3341 53.4249C32.6386 55.0316 30.1642 54.9683 28.6886 53.4061Z" fill="#FF4ECD"/>
<path d="M26.5935 31.5665C25.1191 30.0109 25.328 27.3965 26.8746 25.9221C28.5713 24.3154 31.0479 24.3843 32.5202 25.9421C34.1346 27.6321 34.0713 30.112 32.3713 31.7187C30.8179 33.1931 28.2046 33.2631 26.5935 31.5665Z" fill="#FF4ECD"/>
<path d="M36.3217 43.5207C34.3217 41.4074 34.5462 37.9763 36.6606 35.9574C38.7906 33.9452 42.0939 34.0396 44.0961 36.1607C46.1083 38.2741 46.1583 41.7174 44.0328 43.7296C41.9117 45.7418 38.3373 45.6418 36.3217 43.5207Z" fill="#FF4ECD"/>
<path d="M102.415 89.1037C103.383 90.0659 105.034 90.0525 106.123 88.9459C107.085 87.977 107.072 86.3259 106.104 85.3692C104.99 84.2748 103.351 84.2815 102.388 85.2548C101.301 86.357 101.301 88.0026 102.415 89.1037Z" fill="#FF4ECD"/>
<path d="M84.9235 106.994C85.8991 107.949 87.5435 107.942 88.5068 106.975C89.6068 105.86 89.5946 104.216 88.6324 103.253C87.519 102.165 85.8613 102.177 84.7713 103.278C83.8102 104.248 83.8235 105.899 84.9235 106.994Z" fill="#FF4ECD"/>
<path d="M93.4353 113.418C94.2265 114.196 95.5676 114.189 96.3531 113.405C97.252 112.506 97.2387 111.159 96.4475 110.379C95.5431 109.487 94.202 109.487 93.302 110.393C92.5298 111.184 92.5298 112.526 93.4353 113.418Z" fill="#FF4ECD"/>
<path d="M109.899 97.2297C110.69 98.0019 112.039 98.0019 112.817 97.2053C113.716 96.3053 113.703 94.9586 112.918 94.1797C112.013 93.2808 110.666 93.2931 109.773 94.2042C108.995 94.9897 108.995 96.3375 109.899 97.2297Z" fill="#FF4ECD"/>
<path d="M106.301 109.601C107.282 110.55 108.933 110.545 109.894 109.577C110.849 108.615 110.843 106.95 109.869 105.995C108.768 104.906 107.11 104.911 106.148 105.88C105.193 106.848 105.213 108.507 106.301 109.601Z" fill="#FF4ECD"/>
<path d="M92.7591 80.4271C94.4102 82.0727 97.0246 81.9149 98.5301 80.396C100.175 78.7382 100.162 76.2638 98.5046 74.6249C96.9735 73.1127 94.5002 73.1249 92.8602 74.7838C91.3535 76.3082 91.2269 78.9282 92.7591 80.4271Z" fill="#FF4ECD"/>
<path d="M74.0017 99.3935C75.6595 101.038 78.1339 101.02 79.7861 99.3613C81.2861 97.8302 81.4061 95.2291 79.7483 93.5846C78.2161 92.0791 75.6084 92.218 74.1028 93.748C72.4706 95.4124 72.4828 97.8879 74.0017 99.3935Z" fill="#FF4ECD"/>
<path d="M95.8019 101.938C97.3208 103.45 99.9408 103.292 101.441 101.775C103.092 100.104 103.073 97.6347 101.549 96.1292C99.8908 94.4903 97.4086 94.4958 95.7708 96.1603C94.2575 97.678 94.1375 100.305 95.8019 101.938Z" fill="#FF4ECD"/>
<path d="M84.0385 91.9584C86.114 94.0151 89.5573 93.8562 91.6195 91.7807C93.6706 89.7051 93.644 86.4018 91.5684 84.3463C89.4929 82.2885 86.0507 82.1685 83.9996 84.2507C81.9374 86.3329 81.9629 89.9073 84.0385 91.9584Z" fill="#FF4ECD"/>
<path d="M67.8748 46.3616C69.9637 44.3172 69.8748 40.8694 67.8371 38.7872C65.7871 36.6983 62.4904 36.6617 60.4016 38.7061C58.3105 40.7439 58.1327 44.1794 60.1738 46.2683C62.2182 48.356 65.7993 48.3994 67.8748 46.3616Z" fill="#FF4ECD"/>
<path d="M89.5054 68.4993C91.5942 66.4615 91.6376 63.1526 89.6065 61.0682C87.5565 58.9738 84.1143 58.8027 82.0254 60.8404C79.9376 62.8782 79.8999 66.4615 81.9376 68.5493C83.9743 70.6381 87.4165 70.5437 89.5054 68.4993Z" fill="#FF4ECD"/>
<path d="M70.9887 56.1399C68.3121 53.3111 68.5576 49.0467 71.3932 46.3756C74.0765 43.8322 78.342 43.8067 81.0253 46.63C83.5564 49.3122 83.4431 53.7177 80.7598 56.2544C77.9376 58.9366 73.5454 58.8166 70.9887 56.1399ZM45.2833 80.5164C42.6089 77.6942 42.8622 73.4287 45.5455 70.891C48.3677 68.2087 52.4966 68.3154 55.171 71.1387C57.7177 73.822 57.7432 78.0931 54.921 80.7698C52.2311 83.3209 47.8322 83.2064 45.2833 80.5164Z" fill="#FF4ECD"/>
<path d="M102.781 39.5528C103.768 38.6162 105.426 38.6662 106.489 39.7862C107.426 40.7806 107.375 42.4261 106.401 43.3628C105.267 44.4461 103.616 44.4006 102.68 43.4073C101.603 42.2795 101.654 40.6284 102.781 39.5528Z" fill="#FF4ECD"/>
<path d="M85.6704 21.3144C86.657 20.3778 88.3159 20.4155 89.2526 21.4033C90.3281 22.5366 90.2781 24.1744 89.2904 25.1255C88.1637 26.2011 86.5059 26.1499 85.4359 25.0233C84.4993 24.0222 84.5437 22.3844 85.6704 21.3144Z" fill="#FF4ECD"/>
<path d="M94.3143 15.0617C95.1177 14.2961 96.4654 14.3339 97.231 15.1373C98.1043 16.0617 98.0732 17.3972 97.2565 18.1628C96.3454 19.0428 95.0032 18.9983 94.1243 18.0806C93.3588 17.2706 93.3966 15.935 94.3143 15.0617Z" fill="#FF4ECD"/>
<path d="M110.44 31.5923C111.25 30.8323 112.592 30.8657 113.358 31.6679C114.225 32.5923 114.194 33.9401 113.389 34.7001C112.465 35.5723 111.124 35.5356 110.25 34.6179C109.49 33.8134 109.517 32.4657 110.44 31.5923Z" fill="#FF4ECD"/>
<path d="M107.11 19.1513C108.098 18.208 109.749 18.2524 110.687 19.2402C111.63 20.2279 111.579 21.8857 110.592 22.8224C109.465 23.8857 107.807 23.8479 106.87 22.8602C105.939 21.8779 105.984 20.2202 107.11 19.1513Z" fill="#FF4ECD"/>
<path d="M92.9461 48.026C94.6294 46.426 97.2494 46.6338 98.7238 48.1905C100.324 49.8805 100.262 52.3482 98.565 53.9616C97.0139 55.436 94.5394 55.3671 92.9261 53.676C91.4528 52.1271 91.3895 49.5005 92.9461 48.026Z" fill="#FF4ECD"/>
<path d="M74.5952 28.6808C76.2852 27.0808 78.7596 27.1364 80.3729 28.8331C81.8473 30.3897 81.9107 32.9975 80.214 34.6108C78.6585 36.0852 76.0507 35.883 74.5763 34.3263C72.9752 32.6297 73.0385 30.1553 74.5952 28.6808Z" fill="#FF4ECD"/>
<path d="M96.4267 26.5851C97.99 25.1052 100.604 25.3196 102.086 26.8707C103.692 28.5607 103.617 31.0407 102.066 32.5162C100.363 34.1229 97.8889 34.0662 96.2878 32.364C94.8133 30.8129 94.7445 28.1929 96.4267 26.5851Z" fill="#FF4ECD"/>
<path d="M84.473 36.3189C86.593 34.32 90.0297 34.5412 92.0419 36.6556C94.0485 38.7822 93.953 42.0789 91.8385 44.0855C89.7186 46.0989 86.2819 46.1477 84.2697 44.0278C82.2653 41.9067 82.3597 38.3322 84.473 36.3189Z" fill="#FF4ECD"/>
<path d="M38.8942 102.4C37.932 103.375 37.9476 105.026 39.0498 106.115C40.0242 107.077 41.6765 107.07 42.6353 106.096C43.7331 104.988 43.7209 103.337 42.752 102.38C41.6442 101.291 39.9987 101.291 38.8942 102.4Z" fill="#FF4ECD"/>
<path d="M21.0022 84.9204C20.0533 85.8893 20.0533 87.5404 21.0267 88.497C22.1378 89.597 23.7822 89.5848 24.7477 88.6159C25.8422 87.5093 25.8233 85.857 24.7255 84.7559C23.7522 83.7937 22.1011 83.8137 21.0022 84.9204Z" fill="#FF4ECD"/>
<path d="M14.5796 93.4258C13.8018 94.2235 13.8074 95.558 14.5929 96.3424C15.5007 97.2424 16.8485 97.2291 17.624 96.438C18.5262 95.5391 18.5129 94.1924 17.6051 93.2991C16.8174 92.5213 15.4718 92.528 14.5796 93.4258Z" fill="#FF4ECD"/>
<path d="M30.777 109.9C29.9982 110.691 30.0015 112.026 30.7926 112.811C31.6948 113.703 33.0392 113.697 33.8203 112.912C34.7092 112.001 34.7092 110.66 33.7981 109.774C33.0115 108.987 31.6693 108.987 30.777 109.9Z" fill="#FF4ECD"/>
<path d="M18.4035 106.304C17.4513 107.272 17.4513 108.924 18.4258 109.891C19.3902 110.84 21.048 110.835 22.0102 109.86C23.0891 108.759 23.0857 107.101 22.1246 106.139C21.1524 105.19 19.498 105.204 18.4035 106.304Z" fill="#FF4ECD"/>
<path d="M47.5737 92.7428C45.9314 94.4006 46.0837 97.015 47.6059 98.5205C49.2725 100.165 51.7447 100.153 53.3836 98.495C54.8958 96.9639 54.8803 94.4906 53.2192 92.8506C51.6992 91.3373 49.077 91.2173 47.5737 92.7428Z" fill="#FF4ECD"/>
<path d="M28.6066 73.9916C26.9644 75.656 26.9833 78.1304 28.6377 79.7693C30.1688 81.2749 32.7766 81.396 34.4155 79.7382C35.921 78.2126 35.7821 75.5982 34.2566 74.0927C32.5966 72.4538 30.1122 72.466 28.6066 73.9916Z" fill="#FF4ECD"/>
<path d="M26.0655 95.7863C24.55 97.3118 24.7077 99.9307 26.2277 101.437C27.8888 103.077 30.3632 103.064 31.8732 101.546C33.521 99.8685 33.5088 97.4007 31.8444 95.7552C30.321 94.2552 27.701 94.1285 26.0655 95.7863Z" fill="#FF4ECD"/>
<path d="M36.0358 84.0282C33.9858 86.1104 34.1436 89.5537 36.2191 91.6026C38.298 93.6648 41.6047 93.6337 43.6491 91.5581C45.7057 89.4826 45.8291 86.0404 43.7535 83.9893C41.6713 81.9337 38.0925 81.9593 36.0358 84.0282Z" fill="#FF4ECD"/>
</svg>
