<svg width="152" height="152" viewBox="0 0 152 152" fill="none" xmlns="http://www.w3.org/2000/svg">
<path d="M66.6717 67.7041C63.3164 70.8906 58.259 70.5911 55.0752 67.2239C52.0537 64.0453 52.0207 58.972 55.376 55.7934C58.573 52.7732 63.7888 52.9064 66.8169 56.0956C70.0046 59.4523 69.8568 64.676 66.6717 67.7041ZM95.6307 98.2311C92.2793 101.41 87.214 101.109 84.178 97.9237C81.0061 94.5644 81.1407 89.6797 84.4934 86.4853C87.6785 83.4637 92.7438 83.4347 95.9223 86.7861C98.9517 89.9792 98.8171 95.2017 95.6307 98.2311Z" fill="#FF4ECD"/>
<path d="M83.0041 83.6348C79.0141 87.4229 72.979 87.0548 69.3941 83.2746C65.5994 79.2859 65.5836 73.2572 69.567 69.477C73.3551 65.8775 79.5762 66.0425 83.3498 70.0338C86.9505 73.8286 86.7843 80.0366 83.0041 83.6348Z" fill="#FF4ECD"/>
<path d="M53.0578 81.5682C50.5482 83.9445 46.4606 83.6886 44.0737 81.1711C41.6869 78.6457 41.7964 74.7296 44.3178 72.3467C46.8314 69.9572 50.9124 69.8978 53.2979 72.4153C55.6887 74.9315 55.5792 79.1787 53.0578 81.5682Z" fill="#FF4ECD"/>
<path d="M78.3453 108.232C75.8357 110.623 71.913 110.516 69.5301 108.007C67.1366 105.491 67.0839 101.394 69.6053 99.0123C72.1149 96.6162 76.3687 96.7428 78.7516 99.2537C81.1398 101.77 80.8627 105.851 78.3453 108.232Z" fill="#FF4ECD"/>
<path d="M46.9795 29.9489C45.8712 28.7838 45.92 26.8218 47.2605 25.5446C48.4335 24.4323 50.3942 24.4772 51.5144 25.6502C52.789 27.0026 52.7401 28.9488 51.5566 30.069C50.2213 31.3462 48.2607 31.2934 46.9795 29.9489Z" fill="#FF4ECD"/>
<path d="M25.3089 50.2623C24.1966 49.0894 24.2534 47.1432 25.425 46.023C26.7735 44.7445 28.7236 44.7986 29.8438 45.9636C31.1131 47.3095 31.0643 49.2701 29.7198 50.5473C28.5442 51.6596 26.5835 51.6161 25.3089 50.2623Z" fill="#FF4ECD"/>
<path d="M17.8961 40.0029C16.987 39.0489 17.0319 37.4563 17.9819 36.5473C19.0796 35.5023 20.6762 35.5392 21.5826 36.509C22.6236 37.5988 22.5775 39.1848 21.481 40.2219C20.5297 41.131 18.9332 41.1006 17.8961 40.0029Z" fill="#FF4ECD"/>
<path d="M37.5324 20.8552C36.6194 19.8933 36.6642 18.3074 37.6221 17.3904C38.712 16.3533 40.3085 16.3995 41.2176 17.3534C42.2547 18.4512 42.2098 20.0437 41.116 21.0808C40.1634 21.9899 38.5669 21.953 37.5324 20.8552Z" fill="#FF4ECD"/>
<path d="M22.7511 24.8144C21.6348 23.6348 21.6916 21.6728 22.8566 20.5539C24.0296 19.4495 25.9982 19.5023 27.121 20.6819C28.3798 22.0119 28.3283 23.9805 27.1553 25.0928C25.9824 26.205 24.0217 26.1457 22.7511 24.8144Z" fill="#FF4ECD"/>
<path d="M57.0466 41.626C55.1347 39.6192 55.3894 36.5238 57.2392 34.7729C59.2487 32.865 62.1845 32.9389 64.0924 34.947C65.8433 36.8022 65.7641 39.7406 63.7625 41.6419C61.9087 43.4073 58.8014 43.4825 57.0466 41.626Z" fill="#FF4ECD"/>
<path d="M34.0677 63.4206C32.1625 61.4138 32.2416 58.4675 34.2485 56.5662C36.097 54.8245 39.2003 54.7335 41.1096 56.7469C42.8565 58.5968 42.6203 61.7001 40.7718 63.4431C38.7583 65.351 35.8199 65.2758 34.0677 63.4206Z" fill="#FF4ECD"/>
<path d="M31.5798 37.4857C29.8289 35.6385 30.077 32.5338 31.9136 30.7829C33.9284 28.875 36.8694 28.9568 38.6177 30.8067C40.5348 32.8135 40.4596 35.7585 38.4409 37.6664C36.5963 39.4173 33.493 39.5005 31.5798 37.4857Z" fill="#FF4ECD"/>
<path d="M43.1322 51.6815C40.7572 49.1719 41.0238 45.0975 43.5347 42.7001C46.064 40.3106 49.9867 40.4227 52.3643 42.9415C54.7538 45.4511 54.8132 49.54 52.2891 51.9295C49.7703 54.319 45.5257 54.2003 43.1322 51.6815Z" fill="#FF4ECD"/>
<path d="M121.618 105.812C122.767 106.955 124.728 106.939 126.021 105.625C127.163 104.474 127.148 102.514 125.998 101.378C124.675 100.078 122.729 100.086 121.586 101.242C120.294 102.551 120.294 104.505 121.618 105.812Z" fill="#FF4ECD"/>
<path d="M100.847 127.057C102.005 128.192 103.958 128.184 105.102 127.035C106.408 125.711 106.394 123.758 105.251 122.614C103.929 121.323 101.96 121.337 100.666 122.645C99.5248 123.797 99.5406 125.757 100.847 127.057Z" fill="#FF4ECD"/>
<path d="M110.954 134.686C111.894 135.61 113.486 135.602 114.419 134.67C115.487 133.603 115.471 132.004 114.531 131.078C113.457 130.018 111.865 130.018 110.796 131.093C109.879 132.033 109.879 133.627 110.954 134.686Z" fill="#FF4ECD"/>
<path d="M130.505 115.462C131.445 116.379 133.046 116.379 133.97 115.433C135.037 114.364 135.023 112.765 134.09 111.84C133.016 110.773 131.416 110.787 130.356 111.869C129.431 112.802 129.431 114.403 130.505 115.462Z" fill="#FF4ECD"/>
<path d="M126.232 130.154C127.397 131.281 129.358 131.274 130.499 130.125C131.634 128.982 131.626 127.006 130.47 125.871C129.162 124.578 127.194 124.584 126.051 125.735C124.916 126.884 124.94 128.854 126.232 130.154Z" fill="#FF4ECD"/>
<path d="M110.152 95.5087C112.112 97.4628 115.217 97.2754 117.005 95.4718C118.957 93.5032 118.943 90.5648 116.974 88.6186C115.156 86.8229 112.219 86.8374 110.272 88.8073C108.482 90.6176 108.332 93.7288 110.152 95.5087Z" fill="#FF4ECD"/>
<path d="M87.8772 118.032C89.8458 119.984 92.7841 119.963 94.7461 117.993C96.5274 116.175 96.6699 113.086 94.7013 111.134C92.8818 109.346 89.7851 109.511 87.9972 111.328C86.059 113.304 86.0735 116.244 87.8772 118.032Z" fill="#FF4ECD"/>
<path d="M113.765 121.053C115.569 122.849 118.68 122.662 120.461 120.859C122.422 118.875 122.399 115.943 120.589 114.155C118.62 112.209 115.673 112.216 113.728 114.192C111.931 115.995 111.788 119.114 113.765 121.053Z" fill="#FF4ECD"/>
<path d="M99.7957 109.202C102.26 111.645 106.349 111.456 108.798 108.991C111.234 106.526 111.202 102.604 108.738 100.163C106.273 97.7193 102.185 97.5768 99.7495 100.049C97.3007 102.522 97.331 106.767 99.7957 109.202Z" fill="#FF4ECD"/>
<path d="M80.6014 55.0551C83.0819 52.6274 82.9764 48.5332 80.5565 46.0605C78.1222 43.58 74.2074 43.5365 71.7269 45.9642C69.2437 48.3841 69.0326 52.4638 71.4564 54.9443C73.8841 57.4235 78.1367 57.475 80.6014 55.0551Z" fill="#FF4ECD"/>
<path d="M106.288 81.344C108.768 78.9242 108.82 74.9949 106.408 72.5196C103.973 70.0325 99.8856 69.8293 97.4051 72.2491C94.9259 74.669 94.881 78.9242 97.3008 81.4034C99.7194 83.8839 103.807 83.7718 106.288 81.344Z" fill="#FF4ECD"/>
<path d="M84.2992 66.6673C81.1206 63.308 81.4122 58.2439 84.7794 55.0719C87.9659 52.0517 93.0312 52.0213 96.2176 55.3741C99.2233 58.5592 99.0887 63.7909 95.9023 66.8032C92.5509 69.9884 87.3352 69.8459 84.2992 66.6673ZM53.774 95.6149C50.5981 92.2635 50.899 87.1981 54.0854 84.1844C57.4368 80.9993 62.3398 81.1259 65.5157 84.4787C68.5398 87.6652 68.5702 92.7372 65.2188 95.9157C62.0245 98.9452 56.8008 98.8093 53.774 95.6149Z" fill="#FF4ECD"/>
<path d="M122.052 46.9698C123.225 45.8575 125.193 45.9169 126.456 47.2469C127.568 48.4277 127.508 50.3818 126.351 51.4941C125.005 52.7806 123.044 52.7265 121.932 51.5469C120.653 50.2077 120.714 48.247 122.052 46.9698Z" fill="#FF4ECD"/>
<path d="M101.734 25.3113C102.906 24.199 104.875 24.2439 105.988 25.4168C107.265 26.7627 107.206 28.7075 106.033 29.837C104.695 31.1142 102.726 31.0535 101.455 29.7156C100.343 28.5268 100.396 26.5819 101.734 25.3113Z" fill="#FF4ECD"/>
<path d="M111.998 17.886C112.952 16.9769 114.553 17.0218 115.462 17.9757C116.499 19.0735 116.462 20.6595 115.492 21.5686C114.41 22.6136 112.816 22.5608 111.773 21.4709C110.864 20.5091 110.909 18.9231 111.998 17.886Z" fill="#FF4ECD"/>
<path d="M131.148 37.5165C132.11 36.614 133.704 36.6536 134.613 37.6062C135.642 38.704 135.605 40.3045 134.65 41.207C133.552 42.2427 131.959 42.1992 130.922 41.1093C130.02 40.1541 130.052 38.5536 131.148 37.5165Z" fill="#FF4ECD"/>
<path d="M127.194 22.7425C128.367 21.6223 130.328 21.6751 131.441 22.8481C132.561 24.021 132.501 25.9896 131.328 27.1019C129.99 28.3646 128.021 28.3198 126.909 27.1468C125.803 25.9804 125.856 24.0118 127.194 22.7425Z" fill="#FF4ECD"/>
<path d="M110.373 57.0319C112.372 55.1319 115.484 55.3786 117.235 57.2271C119.134 59.234 119.061 62.1645 117.046 64.0803C115.204 65.8312 112.266 65.7494 110.35 63.7412C108.6 61.9019 108.525 58.7828 110.373 57.0319Z" fill="#FF4ECD"/>
<path d="M88.582 34.059C90.5888 32.1591 93.5272 32.225 95.443 34.2398C97.1939 36.0883 97.2691 39.1851 95.2543 41.1009C93.4071 42.8518 90.3104 42.6116 88.5595 40.7631C86.6582 38.7483 86.7334 35.8099 88.582 34.059Z" fill="#FF4ECD"/>
<path d="M114.507 31.5704C116.363 29.8129 119.468 30.0675 121.227 31.9095C123.135 33.9163 123.045 36.8613 121.203 38.6135C119.182 40.5214 116.243 40.4541 114.342 38.4328C112.591 36.5908 112.509 33.4796 114.507 31.5704Z" fill="#FF4ECD"/>
<path d="M100.312 43.1294C102.829 40.7557 106.91 41.0183 109.3 43.5292C111.683 46.0546 111.569 49.9694 109.058 52.3523C106.541 54.7431 102.46 54.8011 100.07 52.2837C97.6901 49.7649 97.8022 45.5202 100.312 43.1294Z" fill="#FF4ECD"/>
<path d="M46.1869 121.602C45.0443 122.76 45.0628 124.72 46.3717 126.013C47.5288 127.156 49.4908 127.148 50.6295 125.991C51.9331 124.675 51.9186 122.715 50.768 121.579C49.4525 120.286 47.4985 120.286 46.1869 121.602Z" fill="#FF4ECD"/>
<path d="M24.9401 100.845C23.8133 101.995 23.8133 103.956 24.9692 105.092C26.2886 106.398 28.2414 106.384 29.388 105.233C30.6876 103.919 30.6652 101.957 29.3616 100.649C28.2057 99.5067 26.2451 99.5305 24.9401 100.845Z" fill="#FF4ECD"/>
<path d="M17.3133 110.945C16.3897 111.892 16.3963 113.477 17.3291 114.408C18.4071 115.477 20.0076 115.461 20.9285 114.522C21.9999 113.454 21.9841 111.855 20.9061 110.794C19.9706 109.871 18.3728 109.879 17.3133 110.945Z" fill="#FF4ECD"/>
<path d="M36.5476 130.508C35.6227 131.447 35.6266 133.033 36.5661 133.965C37.6374 135.024 39.234 135.018 40.1615 134.085C41.2171 133.003 41.2171 131.41 40.1351 130.359C39.201 129.425 37.6071 129.425 36.5476 130.508Z" fill="#FF4ECD"/>
<path d="M21.8541 126.238C20.7233 127.388 20.7233 129.349 21.8805 130.498C23.0257 131.625 24.9943 131.618 26.137 130.461C27.4181 129.153 27.4142 127.185 26.2729 126.042C25.1184 124.915 23.1537 124.931 21.8541 126.238Z" fill="#FF4ECD"/>
<path d="M56.4935 110.134C54.5434 112.103 54.7242 115.207 56.5318 116.995C58.5109 118.948 61.4467 118.933 63.3928 116.965C65.1886 115.146 65.1701 112.209 63.1976 110.262C61.3926 108.465 58.2787 108.322 56.4935 110.134Z" fill="#FF4ECD"/>
<path d="M33.9704 87.8664C32.0203 89.8429 32.0427 92.7813 34.0073 94.7275C35.8255 96.5153 38.9222 96.6592 40.8684 94.6906C42.6562 92.879 42.4913 89.7743 40.6797 87.9865C38.7085 86.0403 35.7582 86.0548 33.9704 87.8664Z" fill="#FF4ECD"/>
<path d="M30.9528 113.748C29.1531 115.56 29.3404 118.67 31.1454 120.459C33.118 122.406 36.0564 122.39 37.8495 120.588C39.8062 118.596 39.7917 115.665 37.8152 113.711C36.0062 111.93 32.895 111.78 30.9528 113.748Z" fill="#FF4ECD"/>
<path d="M42.7925 99.7851C40.3581 102.258 40.5455 106.347 43.0102 108.78C45.4788 111.229 49.4055 111.192 51.8332 108.727C54.2755 106.262 54.422 102.175 51.9573 99.7389C49.4846 97.2979 45.2347 97.3283 42.7925 99.7851Z" fill="#FF4ECD"/>
</svg>
