<svg width="96" height="96" viewBox="0 0 96 96" fill="none" xmlns="http://www.w3.org/2000/svg">
<path d="M42.1085 42.7606C39.9893 44.7731 36.7952 44.5839 34.7844 42.4572C32.8761 40.4497 32.8552 37.2455 34.9744 35.238C36.9935 33.3305 40.2877 33.4146 42.2002 35.4288C44.2135 37.5488 44.1202 40.8481 42.1085 42.7606ZM60.3984 62.0408C58.2817 64.0483 55.0826 63.8583 53.1651 61.8466C51.1618 59.7249 51.2468 56.6399 53.3643 54.6224C55.3759 52.714 58.5751 52.6957 60.5825 54.8124C62.4959 56.829 62.4109 60.1274 60.3984 62.0408Z" fill="#FF4ECD"/>
<path d="M52.4236 52.822C49.9036 55.2145 46.092 54.982 43.8278 52.5945C41.4312 50.0753 41.4212 46.2677 43.937 43.8802C46.3295 41.6069 50.2586 41.711 52.6419 44.2319C54.9161 46.6286 54.8111 50.5494 52.4236 52.822Z" fill="#FF4ECD"/>
<path d="M33.5101 51.5168C31.9251 53.0177 29.3434 52.856 27.8359 51.266C26.3285 49.671 26.3976 47.1977 27.9901 45.6927C29.5776 44.1835 32.1551 44.146 33.6617 45.736C35.1717 47.3252 35.1026 50.0077 33.5101 51.5168Z" fill="#FF4ECD"/>
<path d="M49.4812 68.3574C47.8962 69.8674 45.4187 69.7999 43.9137 68.2149C42.4021 66.6257 42.3688 64.0383 43.9612 62.5341C45.5462 61.0208 48.2329 61.1008 49.7379 62.6866C51.2462 64.2758 51.0712 66.8532 49.4812 68.3574Z" fill="#FF4ECD"/>
<path d="M29.6711 18.9151C28.9711 18.1793 29.002 16.9401 29.8486 16.1334C30.5895 15.4309 31.8278 15.4593 32.5353 16.2001C33.3403 17.0543 33.3094 18.2834 32.5619 18.9909C31.7186 19.7976 30.4803 19.7643 29.6711 18.9151Z" fill="#FF4ECD"/>
<path d="M15.9845 31.7447C15.282 31.0039 15.3179 29.7747 16.0579 29.0672C16.9095 28.2597 18.1412 28.2939 18.8487 29.0297C19.6503 29.8797 19.6195 31.118 18.7703 31.9247C18.0279 32.6272 16.7895 32.5997 15.9845 31.7447Z" fill="#FF4ECD"/>
<path d="M11.3027 25.265C10.7285 24.6625 10.7569 23.6567 11.3569 23.0825C12.0502 22.4225 13.0585 22.4459 13.631 23.0584C14.2885 23.7467 14.2593 24.7484 13.5668 25.4033C12.966 25.9775 11.9577 25.9583 11.3027 25.265Z" fill="#FF4ECD"/>
<path d="M23.7044 13.1717C23.1278 12.5642 23.1561 11.5626 23.7611 10.9834C24.4494 10.3284 25.4577 10.3576 26.0319 10.9601C26.6869 11.6534 26.6586 12.6592 25.9677 13.3142C25.3661 13.8884 24.3578 13.8651 23.7044 13.1717Z" fill="#FF4ECD"/>
<path d="M14.369 15.6723C13.664 14.9273 13.6998 13.6881 14.4357 12.9815C15.1765 12.284 16.4198 12.3173 17.129 13.0623C17.924 13.9023 17.8915 15.1456 17.1506 15.8481C16.4098 16.5506 15.1715 16.5131 14.369 15.6723Z" fill="#FF4ECD"/>
<path d="M36.0293 26.2902C34.8218 25.0227 34.9826 23.0677 36.1509 21.9619C37.4201 20.7569 39.2743 20.8035 40.4793 22.0719C41.5851 23.2435 41.5351 25.0993 40.2709 26.3002C39.1001 27.4152 37.1376 27.4627 36.0293 26.2902Z" fill="#FF4ECD"/>
<path d="M21.5165 40.0552C20.3132 38.7877 20.3632 36.9269 21.6307 35.726C22.7982 34.626 24.7581 34.5685 25.964 35.8402C27.0673 37.0085 26.9181 38.9685 25.7506 40.0693C24.479 41.2743 22.6232 41.2268 21.5165 40.0552Z" fill="#FF4ECD"/>
<path d="M19.9451 23.6752C18.8393 22.5085 18.996 20.5477 20.156 19.4419C21.4285 18.2369 23.286 18.2885 24.3901 19.4569C25.6009 20.7244 25.5534 22.5844 24.2785 23.7893C23.1135 24.8952 21.1535 24.9477 19.9451 23.6752Z" fill="#FF4ECD"/>
<path d="M27.2413 32.641C25.7413 31.056 25.9097 28.4826 27.4955 26.9685C29.093 25.4593 31.5705 25.5302 33.0721 27.121C34.5813 28.706 34.6188 31.2885 33.0246 32.7976C31.4338 34.3068 28.753 34.2318 27.2413 32.641Z" fill="#FF4ECD"/>
<path d="M76.8113 66.8288C77.5371 67.5505 78.7754 67.5405 79.5921 66.7105C80.3138 65.9838 80.3038 64.7455 79.5779 64.028C78.7421 63.2072 77.5129 63.2122 76.7913 63.9422C75.9754 64.7688 75.9755 66.003 76.8113 66.8288Z" fill="#FF4ECD"/>
<path d="M63.6926 80.2465C64.4243 80.9632 65.6576 80.9582 66.3801 80.2323C67.2051 79.3965 67.1959 78.1632 66.4743 77.4407C65.6393 76.6249 64.396 76.634 63.5785 77.4598C62.8576 78.1873 62.8676 79.4257 63.6926 80.2465Z" fill="#FF4ECD"/>
<path d="M70.0766 85.065C70.6699 85.6483 71.6757 85.6433 72.2649 85.055C72.9391 84.3808 72.9291 83.3708 72.3357 82.7858C71.6574 82.1167 70.6516 82.1167 69.9766 82.7958C69.3974 83.3892 69.3974 84.3958 70.0766 85.065Z" fill="#FF4ECD"/>
<path d="M82.4243 72.9234C83.0176 73.5026 84.0292 73.5026 84.6126 72.9051C85.2867 72.2301 85.2776 71.2201 84.6884 70.6359C84.0101 69.9618 82.9992 69.9709 82.3301 70.6543C81.7459 71.2434 81.7459 72.2543 82.4243 72.9234Z" fill="#FF4ECD"/>
<path d="M79.7253 82.2024C80.4611 82.914 81.6995 82.9099 82.4203 82.184C83.137 81.4624 83.132 80.214 82.402 79.4974C81.5761 78.6807 80.3328 78.6849 79.6112 79.4115C78.8945 80.1374 78.9095 81.3815 79.7253 82.2024Z" fill="#FF4ECD"/>
<path d="M69.5694 60.3213C70.8078 61.5555 72.7686 61.4371 73.8977 60.298C75.1311 59.0546 75.1219 57.1988 73.8786 55.9697C72.7302 54.8355 70.8753 54.8447 69.6453 56.0888C68.5153 57.2321 68.4203 59.1971 69.5694 60.3213Z" fill="#FF4ECD"/>
<path d="M55.5013 74.5463C56.7447 75.7796 58.6005 75.7663 59.8396 74.5221C60.9646 73.3738 61.0546 71.423 59.8113 70.1896C58.6621 69.0605 56.7063 69.1646 55.5772 70.3121C54.353 71.5605 54.3622 73.4171 55.5013 74.5463Z" fill="#FF4ECD"/>
<path d="M71.8514 76.4547C72.9905 77.5889 74.9555 77.4706 76.0805 76.3322C77.3188 75.0789 77.3047 73.2272 76.1614 72.0981C74.918 70.8689 73.0564 70.8731 71.8281 72.1214C70.6931 73.2597 70.6031 75.2297 71.8514 76.4547Z" fill="#FF4ECD"/>
<path d="M63.0287 68.9699C64.5854 70.5124 67.1679 70.3932 68.7145 68.8365C70.2529 67.2799 70.2329 64.8024 68.6762 63.2607C67.1195 61.7174 64.5379 61.6274 62.9996 63.1891C61.4529 64.7507 61.4721 67.4316 63.0287 68.9699Z" fill="#FF4ECD"/>
<path d="M50.9061 34.7717C52.4728 33.2384 52.4061 30.6526 50.8778 29.0909C49.3403 27.5243 46.8678 27.4968 45.3012 29.0301C43.7328 30.5584 43.5995 33.1351 45.1303 34.7017C46.6637 36.2675 49.3495 36.3 50.9061 34.7717Z" fill="#FF4ECD"/>
<path d="M67.1289 51.3752C68.6956 49.8469 68.728 47.3652 67.2047 45.8019C65.6672 44.2311 63.0856 44.1027 61.5189 45.631C59.9531 47.1594 59.9248 49.8469 61.4531 51.4127C62.9806 52.9793 65.5622 52.9085 67.1289 51.3752Z" fill="#FF4ECD"/>
<path d="M53.2416 42.1057C51.2341 39.984 51.4183 36.7856 53.5449 34.7823C55.5574 32.8748 58.7566 32.8556 60.769 34.9731C62.6674 36.9848 62.5824 40.289 60.5699 42.1915C58.4532 44.2032 55.1591 44.1132 53.2416 42.1057ZM33.9626 60.3884C31.9567 58.2717 32.1467 55.0725 34.1592 53.1691C36.2759 51.1574 39.3725 51.2374 41.3783 53.355C43.2883 55.3675 43.3075 58.5708 41.1908 60.5784C39.1734 62.4917 35.8742 62.4059 33.9626 60.3884Z" fill="#FF4ECD"/>
<path d="M77.0853 29.6652C77.8262 28.9627 79.0695 29.0002 79.867 29.8402C80.5695 30.586 80.5311 31.8202 79.8003 32.5227C78.9503 33.3352 77.712 33.301 77.0095 32.556C76.202 31.7102 76.2403 30.4719 77.0853 29.6652Z" fill="#FF4ECD"/>
<path d="M64.2529 15.9862C64.9929 15.2837 66.2371 15.312 66.9396 16.0528C67.7462 16.9028 67.7087 18.1311 66.9679 18.8445C66.1229 19.6511 64.8796 19.6128 64.0771 18.7678C63.3746 18.017 63.4079 16.7887 64.2529 15.9862Z" fill="#FF4ECD"/>
<path d="M70.7356 11.2965C71.3381 10.7223 72.3489 10.7507 72.9231 11.3532C73.5781 12.0465 73.5547 13.0481 72.9422 13.6223C72.2589 14.2823 71.2522 14.249 70.5931 13.5606C70.0189 12.9531 70.0472 11.9515 70.7356 11.2965Z" fill="#FF4ECD"/>
<path d="M82.8301 23.6947C83.4376 23.1247 84.4442 23.1497 85.0184 23.7514C85.6684 24.4447 85.6451 25.4555 85.0417 26.0255C84.3484 26.6797 83.3426 26.6522 82.6876 25.9639C82.1176 25.3605 82.1376 24.3497 82.8301 23.6947Z" fill="#FF4ECD"/>
<path d="M80.3329 14.3638C81.0737 13.6563 82.312 13.6896 83.0154 14.4304C83.7229 15.1713 83.6845 16.4146 82.9437 17.1171C82.0987 17.9146 80.8554 17.8862 80.1529 17.1454C79.4546 16.4088 79.4879 15.1654 80.3329 14.3638Z" fill="#FF4ECD"/>
<path d="M69.7093 36.0202C70.9718 34.8202 72.9368 34.976 74.0426 36.1435C75.2426 37.411 75.196 39.2618 73.9235 40.4718C72.7601 41.5777 70.9043 41.526 69.6943 40.2577C68.5893 39.096 68.5418 37.126 69.7093 36.0202Z" fill="#FF4ECD"/>
<path d="M55.9464 21.511C57.2139 20.311 59.0697 20.3527 60.2797 21.6252C61.3855 22.7927 61.433 24.7485 60.1605 25.9585C58.9939 27.0643 57.038 26.9127 55.9322 25.7452C54.7314 24.4727 54.7789 22.6169 55.9464 21.511Z" fill="#FF4ECD"/>
<path d="M72.3199 19.9392C73.4924 18.8292 75.4532 18.9901 76.564 20.1534C77.769 21.4209 77.7124 23.2809 76.549 24.3875C75.2724 25.5925 73.4165 25.55 72.2157 24.2734C71.1099 23.1101 71.0582 21.1451 72.3199 19.9392Z" fill="#FF4ECD"/>
<path d="M63.3548 27.2397C64.9448 25.7406 67.5223 25.9064 69.0314 27.4922C70.5364 29.0872 70.4647 31.5597 68.8789 33.0647C67.2889 34.5747 64.7114 34.6113 63.2023 33.0214C61.699 31.4305 61.7698 28.7497 63.3548 27.2397Z" fill="#FF4ECD"/>
<path d="M29.1707 76.8015C28.4491 77.5324 28.4608 78.7707 29.2874 79.5874C30.0182 80.309 31.2574 80.304 31.9766 79.5732C32.7999 78.7424 32.7907 77.504 32.0641 76.7865C31.2332 75.9699 29.9991 75.9699 29.1707 76.8015Z" fill="#FF4ECD"/>
<path d="M15.7517 63.6913C15.04 64.418 15.04 65.6563 15.77 66.3738C16.6034 67.1988 17.8367 67.1896 18.5608 66.463C19.3817 65.633 19.3675 64.3938 18.5442 63.568C17.8142 62.8463 16.5759 62.8613 15.7517 63.6913Z" fill="#FF4ECD"/>
<path d="M10.9347 70.0705C10.3514 70.6688 10.3555 71.6696 10.9447 72.2579C11.6255 72.9329 12.6364 72.9229 13.218 72.3296C13.8947 71.6554 13.8847 70.6455 13.2039 69.9755C12.613 69.3921 11.6039 69.3971 10.9347 70.0705Z" fill="#FF4ECD"/>
<path d="M23.0827 82.4261C22.4986 83.0194 22.5011 84.021 23.0944 84.6094C23.771 85.2785 24.7794 85.2744 25.3652 84.6852C26.0319 84.0019 26.0319 82.9961 25.3485 82.3319C24.7585 81.7419 23.7519 81.7419 23.0827 82.4261Z" fill="#FF4ECD"/>
<path d="M13.8026 79.729C13.0884 80.4556 13.0884 81.694 13.8193 82.4198C14.5426 83.1314 15.7859 83.1273 16.5076 82.3964C17.3167 81.5706 17.3142 80.3273 16.5934 79.6056C15.8643 78.894 14.6234 78.904 13.8026 79.729Z" fill="#FF4ECD"/>
<path d="M35.6802 69.5583C34.4485 70.8016 34.5627 72.7624 35.7043 73.8916C36.9543 75.1249 38.8085 75.1157 40.0377 73.8724C41.1718 72.7241 41.1601 70.8691 39.9143 69.6391C38.7743 68.5041 36.8077 68.4141 35.6802 69.5583Z" fill="#FF4ECD"/>
<path d="M21.4549 55.4946C20.2232 56.7429 20.2374 58.5987 21.4782 59.8279C22.6265 60.9571 24.5824 61.0479 25.8115 59.8046C26.9407 58.6604 26.8365 56.6996 25.6923 55.5704C24.4474 54.3413 22.584 54.3504 21.4549 55.4946Z" fill="#FF4ECD"/>
<path d="M19.5492 71.8409C18.4125 72.9851 18.5309 74.9492 19.6709 76.0792C20.9167 77.3092 22.7725 77.2992 23.905 76.1609C25.1408 74.9026 25.1316 73.0517 23.8833 71.8176C22.7408 70.6926 20.7758 70.5976 19.5492 71.8409Z" fill="#FF4ECD"/>
<path d="M27.0269 63.0222C25.4894 64.5838 25.6077 67.1663 27.1644 68.703C28.7235 70.2496 31.2035 70.2263 32.7368 68.6696C34.2793 67.113 34.3718 64.5313 32.8152 62.993C31.2535 61.4514 28.5694 61.4705 27.0269 63.0222Z" fill="#FF4ECD"/>
</svg>
